<?xml version="1.0" encoding="utf-8"?>
<!-- Generator: Adobe Illustrator 18.1.1, SVG Export Plug-In . SVG Version: 6.00 Build 0)  -->
<svg version="1.1" id="Layer_1" xmlns="http://www.w3.org/2000/svg" xmlns:xlink="http://www.w3.org/1999/xlink" x="0px" y="0px"
	 viewBox="0 0 386.6 123.9" enable-background="new 0 0 386.6 123.9" xml:space="preserve">
<path fill-rule="evenodd" clip-rule="evenodd" d="M10.8,119.4H4.6l-0.7,1.7c-0.2,0.6-0.4,1-0.4,1.4c0,0.5,0.2,0.9,0.6,1.1
	c0.2,0.1,0.8,0.2,1.7,0.3v0.5H0v-0.5c0.6-0.1,1.1-0.4,1.5-0.8c0.4-0.4,0.9-1.3,1.5-2.6l6.3-13.9h0.2l6.3,14.3
	c0.6,1.4,1.1,2.2,1.5,2.6c0.3,0.3,0.7,0.4,1.2,0.5v0.5h-8.5v-0.5h0.3c0.7,0,1.2-0.1,1.4-0.3c0.2-0.1,0.3-0.3,0.3-0.6
	c0-0.2,0-0.3-0.1-0.5c0-0.1-0.1-0.4-0.4-1L10.8,119.4L10.8,119.4z M10.3,118.4l-2.6-6l-2.7,6H10.3L10.3,118.4z"/>
<path d="M24.1,112.3v1.6c0.6-0.7,1.2-1.2,1.8-1.5c0.6-0.3,1.2-0.5,1.8-0.5c0.8,0,1.4,0.2,1.9,0.7c0.5,0.4,0.9,1,1,1.6
	c0.1,0.5,0.2,1.4,0.2,2.8v4.7c0,0.9,0.1,1.5,0.2,1.7c0.2,0.2,0.5,0.4,1.1,0.4v0.5h-6.1v-0.5c0.5-0.1,0.8-0.2,1-0.6
	c0.1-0.2,0.2-0.7,0.2-1.6v-5.4c0-1,0-1.6-0.1-1.9c-0.1-0.3-0.2-0.5-0.4-0.6c-0.2-0.1-0.4-0.2-0.6-0.2c-0.7,0-1.4,0.5-2.1,1.6v6.5
	c0,0.9,0.1,1.5,0.2,1.7c0.2,0.2,0.5,0.4,0.9,0.5v0.5h-6.1v-0.5c0.5-0.1,0.9-0.2,1.1-0.5c0.1-0.2,0.2-0.7,0.2-1.7v-6.8
	c0-0.9-0.1-1.5-0.3-1.7c-0.2-0.2-0.5-0.4-1-0.4v-0.5H24.1L24.1,112.3z"/>
<path fill-rule="evenodd" clip-rule="evenodd" d="M49.3,119.4h-6.2l-0.7,1.7c-0.2,0.6-0.4,1-0.4,1.4c0,0.5,0.2,0.9,0.6,1.1
	c0.2,0.1,0.8,0.2,1.7,0.3v0.5h-5.8v-0.5c0.6-0.1,1.1-0.4,1.5-0.8c0.4-0.4,0.9-1.3,1.5-2.6l6.3-13.9H48l6.3,14.3
	c0.6,1.4,1.1,2.2,1.5,2.6c0.3,0.3,0.7,0.4,1.2,0.5v0.5h-8.5v-0.5H49c0.7,0,1.2-0.1,1.4-0.3c0.2-0.1,0.3-0.3,0.3-0.6
	c0-0.2,0-0.3-0.1-0.5c0-0.1-0.1-0.4-0.4-1L49.3,119.4L49.3,119.4z M48.8,118.4l-2.6-6l-2.7,6H48.8L48.8,118.4z"/>
<path d="M67.8,112.3v9.4c0,0.9,0.1,1.5,0.3,1.7c0.2,0.2,0.5,0.4,1,0.4v0.5h-4.9v-1.6c-0.6,0.7-1.2,1.2-1.7,1.5
	c-0.6,0.3-1.2,0.5-1.9,0.5c-0.7,0-1.3-0.2-1.8-0.6c-0.5-0.4-0.9-0.9-1.1-1.5c-0.2-0.6-0.3-1.5-0.3-2.9v-4.8c0-0.9-0.1-1.5-0.3-1.7
	c-0.2-0.2-0.5-0.4-1-0.4v-0.5H61v8.2c0,0.9,0,1.4,0.1,1.7c0.1,0.2,0.2,0.4,0.4,0.6c0.2,0.1,0.4,0.2,0.6,0.2c0.3,0,0.6-0.1,0.8-0.2
	c0.3-0.2,0.8-0.7,1.2-1.4v-6.4c0-0.9-0.1-1.5-0.3-1.7c-0.2-0.2-0.5-0.4-1-0.4v-0.5H67.8L67.8,112.3z"/>
<path d="M77.5,111.9l0.2,4.1h-0.4c-0.5-1.2-1.1-2.1-1.6-2.5c-0.6-0.4-1.1-0.7-1.7-0.7c-0.4,0-0.7,0.1-0.9,0.4
	c-0.2,0.2-0.4,0.5-0.4,0.8c0,0.2,0.1,0.5,0.3,0.7c0.3,0.4,1,1,2.3,1.8c1.3,0.9,2.1,1.6,2.5,2.2c0.4,0.6,0.6,1.3,0.6,2
	c0,0.7-0.2,1.3-0.5,2c-0.3,0.6-0.8,1.1-1.4,1.5c-0.6,0.3-1.3,0.5-2,0.5c-0.6,0-1.3-0.2-2.3-0.5c-0.3-0.1-0.4-0.1-0.5-0.1
	c-0.3,0-0.5,0.2-0.7,0.6h-0.4l-0.2-4.3h0.4c0.4,1.1,0.9,2,1.6,2.6c0.7,0.6,1.3,0.9,1.9,0.9c0.4,0,0.7-0.1,1-0.4
	c0.3-0.3,0.4-0.6,0.4-0.9c0-0.4-0.1-0.8-0.4-1.1c-0.3-0.3-0.8-0.8-1.7-1.4c-1.3-0.9-2.2-1.6-2.6-2.1c-0.6-0.7-0.9-1.5-0.9-2.3
	c0-0.9,0.3-1.8,1-2.5c0.6-0.8,1.6-1.1,2.8-1.1c0.7,0,1.3,0.2,1.9,0.5c0.2,0.1,0.4,0.2,0.6,0.2c0.2,0,0.3,0,0.4-0.1
	c0.1-0.1,0.2-0.3,0.5-0.6H77.5L77.5,111.9z"/>
<path d="M83.9,107.9v4.4h2.9v1.3h-2.9v7.4c0,0.7,0,1.1,0.1,1.4c0.1,0.2,0.2,0.4,0.3,0.5c0.2,0.1,0.3,0.2,0.5,0.2
	c0.6,0,1.1-0.4,1.6-1.3l0.4,0.3c-0.7,1.6-1.8,2.5-3.4,2.5c-0.8,0-1.4-0.2-1.9-0.6c-0.5-0.4-0.9-0.9-1-1.4c-0.1-0.3-0.1-1.1-0.1-2.4
	v-6.5h-1.6v-0.5c1.1-0.8,2-1.6,2.8-2.4c0.8-0.8,1.4-1.8,2-2.8H83.9L83.9,107.9z"/>
<path d="M92.6,112.3v2.7c0.8-1.2,1.5-2.1,2.1-2.5c0.6-0.4,1.2-0.6,1.7-0.6c0.5,0,0.9,0.2,1.1,0.5c0.3,0.3,0.4,0.7,0.4,1.2
	c0,0.6-0.1,1-0.4,1.3c-0.3,0.3-0.6,0.5-1,0.5c-0.5,0-0.9-0.1-1.2-0.4c-0.3-0.3-0.5-0.5-0.6-0.5c-0.1-0.1-0.2-0.1-0.3-0.1
	c-0.2,0-0.5,0.1-0.7,0.3c-0.4,0.3-0.6,0.7-0.8,1.3c-0.3,0.8-0.4,1.8-0.4,2.8v2.8l0,0.7c0,0.5,0,0.8,0.1,0.9c0.1,0.2,0.3,0.4,0.5,0.5
	c0.2,0.1,0.5,0.2,1,0.2v0.5h-6.5v-0.5c0.5,0,0.9-0.2,1.1-0.4c0.2-0.2,0.3-0.9,0.3-1.9v-6.7c0-0.7,0-1.1-0.1-1.3
	c-0.1-0.2-0.2-0.4-0.4-0.5c-0.2-0.1-0.5-0.2-0.9-0.2v-0.5H92.6L92.6,112.3z"/>
<path fill-rule="evenodd" clip-rule="evenodd" d="M104.7,122.6c-1.5,1.3-2.8,1.9-4,1.9c-0.7,0-1.3-0.2-1.7-0.7
	c-0.5-0.5-0.7-1-0.7-1.7c0-0.9,0.4-1.7,1.2-2.5c0.8-0.7,2.5-1.7,5.2-2.9v-1.2c0-0.9-0.1-1.5-0.2-1.7c-0.1-0.2-0.3-0.4-0.6-0.6
	c-0.3-0.2-0.6-0.3-0.9-0.3c-0.6,0-1,0.1-1.4,0.4c-0.2,0.2-0.3,0.3-0.3,0.5c0,0.2,0.1,0.4,0.4,0.7c0.3,0.4,0.5,0.7,0.5,1.1
	c0,0.4-0.2,0.8-0.5,1.1c-0.3,0.3-0.7,0.4-1.2,0.4c-0.5,0-1-0.2-1.4-0.5c-0.4-0.3-0.5-0.7-0.5-1.1c0-0.6,0.2-1.2,0.7-1.8
	c0.5-0.6,1.2-1,2-1.3c0.9-0.3,1.8-0.5,2.7-0.5c1.1,0,2,0.2,2.7,0.7c0.7,0.5,1.1,1,1.3,1.6c0.1,0.4,0.2,1.2,0.2,2.5v4.7
	c0,0.5,0,0.9,0.1,1c0,0.1,0.1,0.2,0.2,0.3c0.1,0.1,0.2,0.1,0.3,0.1c0.2,0,0.5-0.2,0.7-0.5l0.4,0.3c-0.4,0.6-0.9,1.1-1.3,1.4
	c-0.5,0.3-1,0.4-1.6,0.4c-0.7,0-1.2-0.2-1.6-0.5C105,123.7,104.8,123.2,104.7,122.6L104.7,122.6z M104.7,121.6v-4
	c-1,0.6-1.8,1.3-2.3,2c-0.3,0.5-0.5,0.9-0.5,1.4c0,0.4,0.1,0.7,0.4,1c0.2,0.2,0.5,0.3,0.9,0.3C103.6,122.3,104.1,122.1,104.7,121.6
	L104.7,121.6z"/>
<path d="M115.2,106.9v15c0,0.9,0.1,1.4,0.3,1.6c0.2,0.2,0.6,0.4,1.2,0.4v0.5h-6.5v-0.5c0.5,0,0.9-0.2,1.2-0.5
	c0.2-0.2,0.3-0.7,0.3-1.6v-12.5c0-0.8-0.1-1.4-0.3-1.6c-0.2-0.2-0.6-0.4-1.1-0.4v-0.5H115.2L115.2,106.9z"/>
<path fill-rule="evenodd" clip-rule="evenodd" d="M120.7,106.4c0.6,0,1,0.2,1.4,0.6c0.4,0.4,0.6,0.9,0.6,1.4c0,0.5-0.2,1-0.6,1.4
	c-0.4,0.4-0.9,0.6-1.4,0.6c-0.6,0-1-0.2-1.4-0.6c-0.4-0.4-0.6-0.9-0.6-1.4c0-0.5,0.2-1,0.6-1.4C119.7,106.6,120.1,106.4,120.7,106.4
	L120.7,106.4z M122.5,112.3v9.6c0,0.9,0.1,1.4,0.3,1.6c0.2,0.2,0.6,0.4,1.2,0.4v0.5h-6.5v-0.5c0.5,0,0.9-0.2,1.2-0.5
	c0.2-0.2,0.3-0.7,0.3-1.6v-7c0-0.9-0.1-1.4-0.3-1.6c-0.2-0.2-0.6-0.4-1.1-0.4v-0.5H122.5L122.5,112.3z"/>
<path fill-rule="evenodd" clip-rule="evenodd" d="M131,122.6c-1.5,1.3-2.8,1.9-4,1.9c-0.7,0-1.3-0.2-1.7-0.7c-0.5-0.5-0.7-1-0.7-1.7
	c0-0.9,0.4-1.7,1.2-2.5c0.8-0.7,2.5-1.7,5.2-2.9v-1.2c0-0.9-0.1-1.5-0.2-1.7c-0.1-0.2-0.3-0.4-0.6-0.6c-0.3-0.2-0.6-0.3-0.9-0.3
	c-0.6,0-1,0.1-1.4,0.4c-0.2,0.2-0.3,0.3-0.3,0.5c0,0.2,0.1,0.4,0.4,0.7c0.3,0.4,0.5,0.7,0.5,1.1c0,0.4-0.2,0.8-0.5,1.1
	c-0.3,0.3-0.7,0.4-1.2,0.4c-0.5,0-1-0.2-1.4-0.5c-0.4-0.3-0.5-0.7-0.5-1.1c0-0.6,0.2-1.2,0.7-1.8c0.5-0.6,1.2-1,2-1.3
	c0.9-0.3,1.8-0.5,2.7-0.5c1.1,0,2,0.2,2.7,0.7c0.7,0.5,1.1,1,1.3,1.6c0.1,0.4,0.2,1.2,0.2,2.5v4.7c0,0.5,0,0.9,0.1,1
	c0,0.1,0.1,0.2,0.2,0.3c0.1,0.1,0.2,0.1,0.3,0.1c0.2,0,0.5-0.2,0.7-0.5l0.4,0.3c-0.4,0.6-0.9,1.1-1.3,1.4c-0.5,0.3-1,0.4-1.6,0.4
	c-0.7,0-1.2-0.2-1.6-0.5C131.3,123.7,131.1,123.2,131,122.6L131,122.6z M131,121.6v-4c-1,0.6-1.8,1.3-2.3,2
	c-0.3,0.5-0.5,0.9-0.5,1.4c0,0.4,0.1,0.7,0.4,1c0.2,0.2,0.5,0.3,0.9,0.3C129.9,122.3,130.4,122.1,131,121.6L131,121.6z"/>
<path d="M141.4,112.3v1.6c0.6-0.7,1.2-1.2,1.8-1.5c0.6-0.3,1.2-0.5,1.8-0.5c0.8,0,1.4,0.2,1.9,0.7c0.5,0.4,0.9,1,1,1.6
	c0.1,0.5,0.2,1.4,0.2,2.8v4.7c0,0.9,0.1,1.5,0.2,1.7c0.2,0.2,0.5,0.4,1.1,0.4v0.5h-6.1v-0.5c0.5-0.1,0.8-0.2,1-0.6
	c0.1-0.2,0.2-0.7,0.2-1.6v-5.4c0-1,0-1.6-0.1-1.9c-0.1-0.3-0.2-0.5-0.4-0.6c-0.2-0.1-0.4-0.2-0.6-0.2c-0.7,0-1.4,0.5-2.1,1.6v6.5
	c0,0.9,0.1,1.5,0.2,1.7c0.2,0.2,0.5,0.4,0.9,0.5v0.5h-6.1v-0.5c0.5-0.1,0.9-0.2,1.1-0.5c0.1-0.2,0.2-0.7,0.2-1.7v-6.8
	c0-0.9-0.1-1.5-0.3-1.7c-0.2-0.2-0.5-0.4-1-0.4v-0.5H141.4L141.4,112.3z"/>
<path d="M173.2,106.5v6.2h-0.5c-0.6-1.7-1.4-3-2.6-3.8c-1.2-0.9-2.4-1.3-3.8-1.3c-1.3,0-2.4,0.4-3.3,1.1c-0.9,0.7-1.5,1.8-1.8,3.1
	c-0.4,1.3-0.5,2.7-0.5,4c0,1.7,0.2,3.1,0.6,4.4c0.4,1.3,1,2.2,1.9,2.8c0.9,0.6,1.9,0.9,3.1,0.9c0.4,0,0.9,0,1.3-0.1
	c0.4-0.1,0.9-0.2,1.4-0.4v-3.6c0-0.7,0-1.1-0.1-1.3c-0.1-0.2-0.3-0.4-0.6-0.6c-0.3-0.2-0.6-0.2-1.1-0.2h-0.5V117h8.5v0.5
	c-0.6,0-1.1,0.1-1.4,0.3c-0.2,0.1-0.4,0.3-0.6,0.7c-0.1,0.2-0.1,0.6-0.1,1.2v3.6c-1.1,0.5-2.3,0.9-3.5,1.1c-1.2,0.3-2.5,0.4-3.8,0.4
	c-1.7,0-3-0.2-4.1-0.7c-1.1-0.5-2.1-1-2.9-1.8c-0.8-0.7-1.5-1.6-2-2.5c-0.6-1.2-0.9-2.5-0.9-4c0-2.6,0.9-4.9,2.8-6.7
	c1.8-1.8,4.2-2.7,7-2.7c0.9,0,1.6,0.1,2.3,0.2c0.4,0.1,1,0.3,1.8,0.6c0.9,0.3,1.4,0.5,1.5,0.5c0.2,0,0.5-0.1,0.7-0.3
	c0.2-0.2,0.4-0.5,0.6-1H173.2L173.2,106.5z"/>
<path fill-rule="evenodd" clip-rule="evenodd" d="M181.6,111.9c1,0,2,0.3,2.9,0.8c0.9,0.5,1.6,1.3,2,2.3c0.5,1,0.7,2.1,0.7,3.3
	c0,1.7-0.4,3.1-1.3,4.3c-1,1.4-2.5,2.1-4.3,2.1c-1.8,0-3.2-0.6-4.2-1.9c-1-1.3-1.5-2.7-1.5-4.4c0-1.7,0.5-3.2,1.5-4.5
	C178.5,112.6,179.9,111.9,181.6,111.9L181.6,111.9z M181.6,112.8c-0.4,0-0.8,0.2-1.1,0.5c-0.3,0.3-0.5,1-0.6,2
	c-0.1,1-0.1,2.3-0.1,4.1c0,0.9,0.1,1.8,0.2,2.6c0.1,0.6,0.3,1.1,0.6,1.4c0.3,0.3,0.7,0.5,1.1,0.5c0.4,0,0.7-0.1,1-0.3
	c0.3-0.3,0.6-0.7,0.7-1.2c0.2-0.8,0.3-2.5,0.3-5c0-1.5-0.1-2.5-0.2-3c-0.2-0.5-0.4-1-0.7-1.2C182.3,112.9,182,112.8,181.6,112.8
	L181.6,112.8z"/>
<path d="M193,124.7l-4.1-9.3c-0.5-1.1-0.9-1.8-1.1-2.1c-0.2-0.2-0.5-0.4-0.9-0.5v-0.5h6.4v0.5c-0.4,0-0.7,0.1-0.8,0.2
	c-0.2,0.2-0.3,0.4-0.3,0.7c0,0.3,0.2,0.9,0.6,1.8l2,4.5l1.6-3.9c0.5-1.1,0.7-1.9,0.7-2.4c0-0.3-0.1-0.5-0.3-0.6
	c-0.2-0.2-0.5-0.3-1-0.3v-0.5h3.9v0.5c-0.4,0.1-0.7,0.2-0.9,0.4c-0.2,0.2-0.6,0.9-1.1,2l-4,9.5H193L193,124.7z"/>
<path fill-rule="evenodd" clip-rule="evenodd" d="M209.1,117.9h-6.6c0.1,1.6,0.5,2.9,1.3,3.8c0.6,0.7,1.3,1.1,2.1,1.1
	c0.5,0,1-0.1,1.4-0.4c0.4-0.3,0.9-0.8,1.4-1.6l0.4,0.3c-0.7,1.3-1.4,2.3-2.2,2.8c-0.8,0.5-1.7,0.8-2.7,0.8c-1.8,0-3.1-0.7-4.1-2.1
	c-0.7-1.1-1.1-2.5-1.1-4.1c0-2,0.5-3.6,1.6-4.8c1.1-1.2,2.4-1.8,3.8-1.8c1.2,0,2.3,0.5,3.2,1.5C208.5,114.4,209,115.9,209.1,117.9
	L209.1,117.9z M205.9,117c0-1.4-0.1-2.3-0.2-2.8c-0.1-0.5-0.4-0.9-0.7-1.2c-0.2-0.2-0.4-0.2-0.7-0.2c-0.4,0-0.8,0.2-1.1,0.7
	c-0.5,0.8-0.8,1.8-0.8,3.1v0.5H205.9L205.9,117z"/>
<path d="M214.8,112.3v2.7c0.8-1.2,1.5-2.1,2.1-2.5c0.6-0.4,1.2-0.6,1.7-0.6c0.5,0,0.9,0.2,1.1,0.5c0.3,0.3,0.4,0.7,0.4,1.2
	c0,0.6-0.1,1-0.4,1.3c-0.3,0.3-0.6,0.5-1,0.5c-0.5,0-0.8-0.1-1.2-0.4c-0.3-0.3-0.5-0.5-0.6-0.5c-0.1-0.1-0.2-0.1-0.3-0.1
	c-0.2,0-0.5,0.1-0.7,0.3c-0.4,0.3-0.6,0.7-0.8,1.3c-0.3,0.8-0.4,1.8-0.4,2.8v2.8l0,0.7c0,0.5,0,0.8,0.1,0.9c0.1,0.2,0.3,0.4,0.5,0.5
	c0.2,0.1,0.6,0.2,1,0.2v0.5h-6.5v-0.5c0.5,0,0.9-0.2,1.1-0.4c0.2-0.2,0.3-0.9,0.3-1.9v-6.7c0-0.7,0-1.1-0.1-1.3
	c-0.1-0.2-0.2-0.4-0.4-0.5c-0.2-0.1-0.5-0.2-0.9-0.2v-0.5H214.8L214.8,112.3z"/>
<path d="M225.9,112.3v1.6c0.6-0.7,1.2-1.2,1.8-1.5c0.6-0.3,1.2-0.5,1.8-0.5c0.8,0,1.4,0.2,1.9,0.7c0.5,0.4,0.9,1,1,1.6
	c0.1,0.5,0.2,1.4,0.2,2.8v4.7c0,0.9,0.1,1.5,0.2,1.7c0.2,0.2,0.5,0.4,1.1,0.4v0.5h-6.1v-0.5c0.5-0.1,0.8-0.2,1-0.6
	c0.1-0.2,0.2-0.7,0.2-1.6v-5.4c0-1,0-1.6-0.1-1.9c-0.1-0.3-0.2-0.5-0.4-0.6c-0.2-0.1-0.4-0.2-0.6-0.2c-0.7,0-1.4,0.5-2.1,1.6v6.5
	c0,0.9,0.1,1.5,0.2,1.7c0.2,0.2,0.5,0.4,0.9,0.5v0.5H221v-0.5c0.5-0.1,0.9-0.2,1.1-0.5c0.1-0.2,0.2-0.7,0.2-1.7v-6.8
	c0-0.9-0.1-1.5-0.3-1.7c-0.2-0.2-0.5-0.4-1-0.4v-0.5H225.9L225.9,112.3z"/>
<path d="M239.9,112.3v1.6c0.7-0.7,1.3-1.2,1.8-1.5c0.6-0.3,1.2-0.4,1.9-0.4c0.8,0,1.4,0.2,1.9,0.5c0.5,0.4,0.9,0.9,1.2,1.7
	c0.7-0.8,1.3-1.3,2-1.7c0.6-0.3,1.3-0.5,2-0.5c0.8,0,1.5,0.2,2,0.6c0.5,0.4,0.8,0.9,1,1.5c0.2,0.6,0.3,1.5,0.3,2.8v4.9
	c0,0.9,0.1,1.5,0.2,1.7c0.2,0.2,0.5,0.4,1.1,0.4v0.5h-6.2v-0.5c0.5,0,0.9-0.2,1.1-0.6c0.2-0.2,0.2-0.8,0.2-1.6v-5.2
	c0-1.1,0-1.8-0.1-2c-0.1-0.3-0.2-0.5-0.4-0.6c-0.2-0.1-0.4-0.2-0.6-0.2c-0.4,0-0.7,0.1-1.1,0.4c-0.4,0.3-0.8,0.7-1.1,1.2v6.5
	c0,0.9,0.1,1.4,0.2,1.6c0.2,0.3,0.6,0.5,1.1,0.5v0.5h-6.2v-0.5c0.3,0,0.6-0.1,0.8-0.2c0.2-0.2,0.3-0.3,0.4-0.5
	c0.1-0.2,0.1-0.7,0.1-1.4v-5.2c0-1.1,0-1.8-0.1-2c-0.1-0.3-0.2-0.5-0.4-0.6c-0.2-0.2-0.4-0.2-0.6-0.2c-0.3,0-0.7,0.1-0.9,0.3
	c-0.4,0.3-0.8,0.7-1.3,1.4v6.5c0,0.9,0.1,1.4,0.2,1.7c0.2,0.3,0.5,0.4,1.1,0.5v0.5H235v-0.5c0.5-0.1,0.9-0.2,1.1-0.5
	c0.1-0.2,0.2-0.7,0.2-1.7v-6.8c0-0.9-0.1-1.5-0.3-1.7c-0.2-0.2-0.5-0.4-1-0.4v-0.5H239.9L239.9,112.3z"/>
<path fill-rule="evenodd" clip-rule="evenodd" d="M266,117.9h-6.6c0.1,1.6,0.5,2.9,1.3,3.8c0.6,0.7,1.3,1.1,2.1,1.1
	c0.5,0,1-0.1,1.4-0.4c0.4-0.3,0.9-0.8,1.4-1.6l0.4,0.3c-0.7,1.3-1.4,2.3-2.2,2.8c-0.8,0.5-1.7,0.8-2.7,0.8c-1.8,0-3.1-0.7-4.1-2.1
	c-0.7-1.1-1.1-2.5-1.1-4.1c0-2,0.5-3.6,1.6-4.8c1.1-1.2,2.4-1.8,3.8-1.8c1.2,0,2.3,0.5,3.2,1.5C265.5,114.4,266,115.9,266,117.9
	L266,117.9z M262.9,117c0-1.4-0.1-2.3-0.2-2.8c-0.1-0.5-0.4-0.9-0.7-1.2c-0.2-0.2-0.4-0.2-0.7-0.2c-0.4,0-0.8,0.2-1.1,0.7
	c-0.5,0.8-0.8,1.8-0.8,3.1v0.5H262.9L262.9,117z"/>
<path d="M271.4,112.3v1.6c0.6-0.7,1.2-1.2,1.8-1.5c0.6-0.3,1.2-0.5,1.8-0.5c0.8,0,1.4,0.2,1.9,0.7c0.5,0.4,0.9,1,1,1.6
	c0.1,0.5,0.2,1.4,0.2,2.8v4.7c0,0.9,0.1,1.5,0.2,1.7c0.2,0.2,0.5,0.4,1.1,0.4v0.5h-6.1v-0.5c0.5-0.1,0.8-0.2,1-0.6
	c0.1-0.2,0.2-0.7,0.2-1.6v-5.4c0-1,0-1.6-0.1-1.9c-0.1-0.3-0.2-0.5-0.4-0.6c-0.2-0.1-0.4-0.2-0.6-0.2c-0.7,0-1.4,0.5-2.1,1.6v6.5
	c0,0.9,0.1,1.5,0.2,1.7c0.2,0.2,0.5,0.4,0.9,0.5v0.5h-6.1v-0.5c0.5-0.1,0.9-0.2,1.1-0.5c0.1-0.2,0.2-0.7,0.2-1.7v-6.8
	c0-0.9-0.1-1.5-0.3-1.7c-0.2-0.2-0.5-0.4-1-0.4v-0.5H271.4L271.4,112.3z"/>
<path d="M284.6,107.9v4.4h2.9v1.3h-2.9v7.4c0,0.7,0,1.1,0.1,1.4c0.1,0.2,0.2,0.4,0.3,0.5c0.2,0.1,0.3,0.2,0.5,0.2
	c0.6,0,1.1-0.4,1.6-1.3l0.4,0.3c-0.7,1.6-1.8,2.5-3.4,2.5c-0.8,0-1.4-0.2-1.9-0.6c-0.5-0.4-0.9-0.9-1-1.4c-0.1-0.3-0.1-1.1-0.1-2.4
	v-6.5h-1.6v-0.5c1.1-0.8,2-1.6,2.8-2.4c0.8-0.8,1.4-1.8,2-2.8H284.6L284.6,107.9z"/>
<path d="M302.2,123.9v0.5H293v-0.5h0.6c0.5,0,0.9-0.1,1.2-0.3c0.2-0.1,0.4-0.3,0.5-0.6c0.1-0.2,0.1-0.7,0.1-1.6v-11.5
	c0-0.9,0-1.5-0.1-1.7c-0.1-0.2-0.3-0.4-0.6-0.6c-0.3-0.2-0.7-0.3-1.2-0.3H293v-0.5h9.1v0.5h-0.6c-0.5,0-0.9,0.1-1.2,0.3
	c-0.2,0.1-0.4,0.3-0.5,0.6c-0.1,0.2-0.1,0.7-0.1,1.6v11.5c0,0.9,0,1.5,0.1,1.7c0.1,0.2,0.3,0.4,0.6,0.6c0.3,0.2,0.7,0.2,1.2,0.2
	H302.2L302.2,123.9z"/>
<path d="M308.1,112.3v1.6c0.6-0.7,1.2-1.2,1.8-1.5c0.6-0.3,1.2-0.5,1.8-0.5c0.8,0,1.4,0.2,1.9,0.7c0.5,0.4,0.9,1,1,1.6
	c0.1,0.5,0.2,1.4,0.2,2.8v4.7c0,0.9,0.1,1.5,0.2,1.7c0.2,0.2,0.5,0.4,1.1,0.4v0.5h-6.1v-0.5c0.5-0.1,0.8-0.2,1-0.6
	c0.1-0.2,0.2-0.7,0.2-1.6v-5.4c0-1,0-1.6-0.1-1.9c-0.1-0.3-0.2-0.5-0.4-0.6c-0.2-0.1-0.4-0.2-0.6-0.2c-0.7,0-1.4,0.5-2.1,1.6v6.5
	c0,0.9,0.1,1.5,0.2,1.7c0.2,0.2,0.5,0.4,0.9,0.5v0.5h-6.1v-0.5c0.5-0.1,0.9-0.2,1.1-0.5c0.1-0.2,0.2-0.7,0.2-1.7v-6.8
	c0-0.9-0.1-1.5-0.3-1.7c-0.2-0.2-0.5-0.4-1-0.4v-0.5H308.1L308.1,112.3z"/>
<path fill-rule="evenodd" clip-rule="evenodd" d="M320.2,106.4c0.6,0,1,0.2,1.4,0.6c0.4,0.4,0.6,0.9,0.6,1.4c0,0.5-0.2,1-0.6,1.4
	c-0.4,0.4-0.9,0.6-1.4,0.6c-0.5,0-1-0.2-1.4-0.6c-0.4-0.4-0.6-0.9-0.6-1.4c0-0.5,0.2-1,0.6-1.4C319.2,106.6,319.6,106.4,320.2,106.4
	L320.2,106.4z M322,112.3v9.6c0,0.9,0.1,1.4,0.3,1.6c0.2,0.2,0.6,0.4,1.2,0.4v0.5h-6.5v-0.5c0.5,0,0.9-0.2,1.2-0.5
	c0.2-0.2,0.3-0.7,0.3-1.6v-7c0-0.9-0.1-1.4-0.3-1.6c-0.2-0.2-0.6-0.4-1.1-0.4v-0.5H322L322,112.3z"/>
<path d="M328.9,107.9v4.4h2.9v1.3h-2.9v7.4c0,0.7,0,1.1,0.1,1.4c0.1,0.2,0.2,0.4,0.3,0.5c0.2,0.1,0.3,0.2,0.5,0.2
	c0.6,0,1.1-0.4,1.6-1.3l0.4,0.3c-0.7,1.6-1.8,2.5-3.4,2.5c-0.8,0-1.4-0.2-1.9-0.6c-0.5-0.4-0.9-0.9-1-1.4c-0.1-0.3-0.1-1.1-0.1-2.4
	v-6.5h-1.6v-0.5c1.1-0.8,2-1.6,2.8-2.4c0.8-0.8,1.4-1.8,2-2.8H328.9L328.9,107.9z"/>
<path fill-rule="evenodd" clip-rule="evenodd" d="M335.8,106.4c0.6,0,1,0.2,1.4,0.6c0.4,0.4,0.6,0.9,0.6,1.4c0,0.5-0.2,1-0.6,1.4
	c-0.4,0.4-0.9,0.6-1.4,0.6c-0.6,0-1-0.2-1.4-0.6c-0.4-0.4-0.6-0.9-0.6-1.4c0-0.5,0.2-1,0.6-1.4C334.8,106.6,335.2,106.4,335.8,106.4
	L335.8,106.4z M337.6,112.3v9.6c0,0.9,0.1,1.4,0.3,1.6c0.2,0.2,0.6,0.4,1.2,0.4v0.5h-6.5v-0.5c0.5,0,0.9-0.2,1.2-0.5
	c0.2-0.2,0.3-0.7,0.3-1.6v-7c0-0.9-0.1-1.4-0.3-1.6c-0.2-0.2-0.6-0.4-1.1-0.4v-0.5H337.6L337.6,112.3z"/>
<path fill-rule="evenodd" clip-rule="evenodd" d="M346.6,122.6c-1.5,1.3-2.8,1.9-4,1.9c-0.7,0-1.3-0.2-1.7-0.7
	c-0.5-0.5-0.7-1-0.7-1.7c0-0.9,0.4-1.7,1.2-2.5c0.8-0.7,2.5-1.7,5.2-2.9v-1.2c0-0.9-0.1-1.5-0.2-1.7c-0.1-0.2-0.3-0.4-0.6-0.6
	c-0.3-0.2-0.6-0.3-0.9-0.3c-0.6,0-1,0.1-1.4,0.4c-0.2,0.2-0.3,0.3-0.3,0.5c0,0.2,0.1,0.4,0.4,0.7c0.3,0.4,0.5,0.7,0.5,1.1
	c0,0.4-0.2,0.8-0.5,1.1c-0.3,0.3-0.7,0.4-1.2,0.4c-0.5,0-1-0.2-1.4-0.5c-0.4-0.3-0.5-0.7-0.5-1.1c0-0.6,0.2-1.2,0.7-1.8
	c0.5-0.6,1.2-1,2-1.3c0.9-0.3,1.8-0.5,2.7-0.5c1.1,0,2,0.2,2.7,0.7c0.7,0.5,1.1,1,1.3,1.6c0.1,0.4,0.2,1.2,0.2,2.5v4.7
	c0,0.5,0,0.9,0.1,1c0,0.1,0.1,0.2,0.2,0.3c0.1,0.1,0.2,0.1,0.3,0.1c0.2,0,0.5-0.2,0.7-0.5l0.4,0.3c-0.4,0.6-0.9,1.1-1.3,1.4
	c-0.5,0.3-1,0.4-1.6,0.4c-0.7,0-1.2-0.2-1.6-0.5C346.9,123.7,346.7,123.2,346.6,122.6L346.6,122.6z M346.6,121.6v-4
	c-1,0.6-1.8,1.3-2.3,2c-0.3,0.5-0.5,0.9-0.5,1.4c0,0.4,0.1,0.7,0.4,1c0.2,0.2,0.5,0.3,0.9,0.3C345.5,122.3,346,122.1,346.6,121.6
	L346.6,121.6z"/>
<path d="M356.9,107.9v4.4h2.9v1.3h-2.9v7.4c0,0.7,0,1.1,0.1,1.4c0.1,0.2,0.2,0.4,0.3,0.5c0.2,0.1,0.3,0.2,0.5,0.2
	c0.6,0,1.1-0.4,1.6-1.3l0.4,0.3c-0.7,1.6-1.8,2.5-3.4,2.5c-0.8,0-1.4-0.2-1.9-0.6c-0.5-0.4-0.9-0.9-1-1.4c-0.1-0.3-0.1-1.1-0.1-2.4
	v-6.5h-1.6v-0.5c1.1-0.8,2-1.6,2.8-2.4c0.8-0.8,1.4-1.8,2-2.8H356.9L356.9,107.9z"/>
<path fill-rule="evenodd" clip-rule="evenodd" d="M363.8,106.4c0.6,0,1,0.2,1.4,0.6c0.4,0.4,0.6,0.9,0.6,1.4c0,0.5-0.2,1-0.6,1.4
	c-0.4,0.4-0.9,0.6-1.4,0.6c-0.6,0-1-0.2-1.4-0.6c-0.4-0.4-0.6-0.9-0.6-1.4c0-0.5,0.2-1,0.6-1.4C362.8,106.6,363.2,106.4,363.8,106.4
	L363.8,106.4z M365.6,112.3v9.6c0,0.9,0.1,1.4,0.3,1.6c0.2,0.2,0.6,0.4,1.2,0.4v0.5h-6.5v-0.5c0.5,0,0.9-0.2,1.2-0.5
	c0.2-0.2,0.3-0.7,0.3-1.6v-7c0-0.9-0.1-1.4-0.3-1.6c-0.2-0.2-0.6-0.4-1.1-0.4v-0.5H365.6L365.6,112.3z"/>
<path d="M372.9,124.7l-4.1-9.3c-0.5-1.1-0.9-1.8-1.1-2.1c-0.2-0.2-0.5-0.4-0.9-0.5v-0.5h6.4v0.5c-0.4,0-0.7,0.1-0.8,0.2
	c-0.2,0.2-0.3,0.4-0.3,0.7c0,0.3,0.2,0.9,0.6,1.8l2,4.5l1.6-3.9c0.5-1.1,0.7-1.9,0.7-2.4c0-0.3-0.1-0.5-0.3-0.6
	c-0.2-0.2-0.5-0.3-1-0.3v-0.5h3.9v0.5c-0.4,0.1-0.7,0.2-0.9,0.4c-0.2,0.2-0.6,0.9-1.1,2l-4,9.5H372.9L372.9,124.7z"/>
<path fill-rule="evenodd" clip-rule="evenodd" d="M388.7,117.9h-6.6c0.1,1.6,0.5,2.9,1.3,3.8c0.6,0.7,1.3,1.1,2.1,1.1
	c0.5,0,1-0.1,1.4-0.4c0.4-0.3,0.9-0.8,1.4-1.6l0.4,0.3c-0.7,1.3-1.4,2.3-2.2,2.8c-0.8,0.5-1.7,0.8-2.7,0.8c-1.8,0-3.1-0.7-4.1-2.1
	c-0.7-1.1-1.1-2.5-1.1-4.1c0-2,0.5-3.6,1.6-4.8c1.1-1.2,2.4-1.8,3.8-1.8c1.2,0,2.3,0.5,3.2,1.5C388.2,114.4,388.7,115.9,388.7,117.9
	L388.7,117.9z M385.6,117c0-1.4-0.1-2.3-0.2-2.8c-0.1-0.5-0.4-0.9-0.7-1.2c-0.2-0.2-0.4-0.2-0.7-0.2c-0.4,0-0.8,0.2-1.1,0.7
	c-0.5,0.8-0.8,1.8-0.8,3.1v0.5H385.6L385.6,117z"/>
<path d="M173.9,75.7c-0.1,0.1-0.2,0.3-0.3,0.3"/>
<path d="M177,52.1c0.3,0,0.6-0.3,0.6-0.6c0-0.4-0.3-0.6-0.6-0.6c-0.3,0-0.6,0.3-0.6,0.6C176.3,51.9,176.6,52.1,177,52.1L177,52.1z"
	/>
<path d="M206.2,25.5L206.2,25.5l-22.7,0v0h0l0,18.4c0,1.8,0.8,3.3,1.8,3.8l8.7,5.2c0.2,0.2,0.5,0.4,0.8,0.4c0.3,0,0.5-0.1,0.7-0.3
	l8.9-5.3c1-0.5,1.8-2,1.8-3.8L206.2,25.5L206.2,25.5L206.2,25.5z M191,30.8h-2v-4.7h2V30.8L191,30.8z M189.6,32.4l0.3-0.3l-0.2-0.3
	l0.4,0l0.2-0.4l0.2,0.4l0.4,0l-0.2,0.3l0.3,0.3l-0.4,0.1v0.4l-0.3-0.3l-0.3,0.3v-0.4L189.6,32.4L189.6,32.4z M184.1,38.3v-4.5h2.4
	v4.5H184.1L184.1,38.3z M184.5,31.8l0.4,0l0.2-0.4l0.2,0.4l0.4,0l-0.2,0.3l0.3,0.3l-0.4,0.1v0.4l-0.3-0.3l-0.3,0.3v-0.4l-0.4-0.1
	l0.3-0.3L184.5,31.8L184.5,31.8z M187.2,36.4l0.4,0l0.2-0.4l0.2,0.4l0.4,0l-0.2,0.3l0.3,0.3l-0.4,0.1v0.4l-0.3-0.3l-0.3,0.3V37
	l-0.4-0.1l0.3-0.3L187.2,36.4L187.2,36.4z M188.8,32.8c0-0.1-0.2-0.2-0.2-0.2c-0.2,0-0.3,0.4-0.5,0.4c-0.1,0-0.2,0-0.2-0.1
	c0-0.1,0.3-0.2,0.4-0.3c-1.5,0-1.5,0.7-1.7,0.7c-0.4,0,0.3-0.7,0.5-0.9c-0.3,0-0.5-0.4-0.8-0.6c0.2-0.2,0.2-0.1,0.4,0
	c0-0.2,0.1-0.3,0.5-0.3c0.7,0,0.5,0.6,0.6,0.6c0.1,0,0-0.6,0.4-0.6c0.7,0,1.5,1.7,0.7,1.7C188.5,33.1,188.8,32.8,188.8,32.8
	L188.8,32.8z M187.1,27.9l0.3-0.3l-0.2-0.3l0.4,0l0.2-0.4l0.2,0.4l0.4,0l-0.2,0.3l0.3,0.3l-0.4,0.1v0.4l-0.3-0.3l-0.3,0.3v-0.4
	L187.1,27.9L187.1,27.9z M186.5,26.1v4.7h-2.4v-4.7H186.5L186.5,26.1z M191,50.4l-5.4-3.3c-0.9-0.6-1.4-1.7-1.5-3v-5.2h6.9V50.4
	L191,50.4z M189.1,38.3v-4.5h2v4.5H189.1L189.1,38.3z M198,50.7l-2.5,1.5h0c-0.2,0.1-0.4,0.2-0.7,0.2c-0.3,0-0.5-0.1-0.7-0.2
	l-2.5-1.5V38.9h6.4V50.7L198,50.7z M198,38.3h-6.4V26.1h6.4V38.3L198,38.3z M205.6,44.1c-0.1,1.3-0.6,2.4-1.5,3l-5.4,3.3V38.9h6.9
	V44.1L205.6,44.1z M205.6,38.3h-6.9V26.1h6.9V38.3L205.6,38.3z"/>
<path d="M190.7,43.1c0-0.1-0.9,0.3-0.6,0.3c0-0.2,0.5-0.7,0.7-0.9c0-0.3-0.4,0-0.8,0.2c1.3-1.9,0.5-1.1-0.3-1c1.2-1.2,0.9-1.2,0-0.8
	c0.7-0.5,0.8-1.2,0.7-1.3c-0.6,0.8-1.2,0.7-1.2,1.5c0,0.5-0.2,1.4-0.4,1.6c-0.3,0.4-0.1-1.4-1-1.4c-0.3,0-1,0-1.2,0.3
	c0.2,0,0.5,0.5,0.5,0.6c0,0.2,0.2,0.7-0.1,0.7c-0.3,0-0.7-0.6-0.7-0.9c0-0.3,0-0.2,0-0.7c0-0.7-1.2-1.8-1.7-1.8
	c0,0.5,0.7,0.6,0.7,1.3c-0.3,0-0.7-0.5-0.7-0.2c0,0.3,0.4,0.4,0.4,0.7c0,0.3-0.5-0.1-0.5,0.2c0,0.3,0.3,0.2,0.3,0.5
	c-0.2-0.1-0.4,0-0.4,0.1c0,0.1,0.1,0.2,0.2,0.3c-0.1,0.1-0.1,0.2-0.1,0.6c0,1.5,0.9,2.1,1.6,2.1c0.5,0,0.4-0.3,0.5-0.5
	c0,0.2,0.3-0.1,0.3,0.3c0,0.4-0.5,0.3-0.5,0.6c0,0.5,0.7,0,0.7,0.6c0,0.7-0.1,0.7-0.1,0.9c0,0.2,0.8-0.3,0.7-0.3
	c0.2,0.1,0.2,0.6,0.5,0.6c0.2,0,0.3-0.6,0.4-0.6c-0.1,0,0.7,0.5,0.7,0.3c0-0.7-0.3-0.4-0.3-0.9c0-0.4,0.9-0.3,0.8-0.6
	c-0.1-0.2-0.2-0.1-0.3-0.4c0,0.1-0.7-1.1,0.2-0.5C190.6,45.3,190.7,43.2,190.7,43.1L190.7,43.1z"/>
<path d="M214.9,47.9c0.4,0,0.7-0.3,0.7-0.7c0-0.4-0.3-0.7-0.7-0.7c-0.4,0-0.7,0.3-0.7,0.7C214.2,47.6,214.5,47.9,214.9,47.9
	L214.9,47.9z"/>
<path d="M211.9,49.7c0.4,0,0.7-0.3,0.7-0.7c0-0.4-0.3-0.7-0.7-0.7c-0.4,0-0.7,0.3-0.7,0.7C211.1,49.4,211.5,49.7,211.9,49.7
	L211.9,49.7z"/>
<path d="M175.9,53.9c0.4,0,0.7-0.3,0.7-0.7c0-0.4-0.3-0.7-0.7-0.7c-0.4,0-0.7,0.3-0.7,0.7C175.2,53.6,175.5,53.9,175.9,53.9
	L175.9,53.9z"/>
<path d="M178.3,54.1c0.4,0,0.7-0.3,0.7-0.7c0-0.4-0.3-0.7-0.7-0.7s-0.7,0.3-0.7,0.7C177.5,53.8,177.9,54.1,178.3,54.1L178.3,54.1z"
	/>
<path d="M243,22.7c1.1,1.3,1.3,3.4,0.6,5c-0.4,0-0.4-0.6-0.4-0.9c-0.8-1.5-1.4-3.4-0.7-5C242.9,21.8,242.7,22.4,243,22.7L243,22.7z"
	/>
<path d="M148,24.5c-0.2,1-0.2,2.3,0,3.2c-0.2,0.2-0.2-0.2-0.4-0.2c-1.5-1.1-0.8-3.3-1.2-4.9c0.1-0.1,0.3-0.2,0.4-0.1
	C147.6,23,147.9,23.7,148,24.5L148,24.5z"/>
<path d="M246.4,24.6c0.2,0.4-0.2,0.9-0.5,1.1c-0.4,0.1-0.8-0.1-1-0.4c-0.1-0.4,0.1-0.8,0.5-1C245.8,24.2,246.2,24.3,246.4,24.6
	L246.4,24.6z"/>
<path d="M145.6,26.4c-0.1,0.4-0.2,0.7-0.5,0.9c-0.2,0-0.6,0-0.8-0.2c-0.2-0.2-0.3-0.6-0.2-0.8c0.2-0.3,0.5-0.3,0.8-0.4
	C145.2,26,145.5,26,145.6,26.4L145.6,26.4z"/>
<path d="M247.9,27c0.1,0.2,0.1,0.4,0,0.6c-0.3,0.4-0.7,0.5-1.1,0.4c-0.3-0.2-0.4-0.4-0.4-0.7c0.1-0.3,0.4-0.6,0.7-0.7
	C247.5,26.6,247.7,26.8,247.9,27L247.9,27z"/>
<path d="M245.7,27.1c0.3,0.2,0.1,0.6,0,0.8c-0.2,0.2-0.5,0.5-0.8,0.4c-0.2-0.2-0.4-0.2-0.5-0.5c0-0.4,0.2-0.8,0.6-0.9
	C245.2,26.8,245.4,27,245.7,27.1L245.7,27.1z"/>
<path d="M242.8,27.7c0,0.4,0,1-0.5,1.1c-0.5,0.2-0.8-0.2-0.9-0.6c0-0.4,0.2-0.8,0.6-1C242.3,27.2,242.6,27.4,242.8,27.7L242.8,27.7z
	"/>
<path d="M149.9,27.9c0.1,0.4-0.3,0.6-0.5,0.8c-0.3,0.1-0.6-0.2-0.8-0.4c-0.3-0.3,0.1-0.5,0.2-0.8C149.2,27.2,149.8,27.4,149.9,27.9
	L149.9,27.9z"/>
<path d="M147.6,28c0,0.3-0.2,0.6-0.4,0.8c-0.3,0.1-0.6-0.1-0.8-0.4c-0.2-0.4,0-0.8,0.4-0.9C147.1,27.3,147.4,27.7,147.6,28L147.6,28
	z"/>
<path d="M233.2,28.2c0.4,0.8,0.7,1.8,0.8,2.9c-0.2,0.8,0.1,1.8-0.4,2.3c-0.6-0.2-0.6-0.9-1-1.2c-0.7-1.4-0.1-3,0.2-4.4
	C233.1,27.6,233.1,28,233.2,28.2L233.2,28.2z"/>
<path d="M145.7,28.6c0.1,0.5-0.2,0.7-0.5,1c-0.5,0.1-0.8-0.2-1-0.6c0-0.4,0.2-0.8,0.5-1C145.1,28.1,145.5,28.3,145.7,28.6
	L145.7,28.6z"/>
<path d="M239.5,29.8c0.5,1.2,0.6,2.6,0.2,3.8l-0.2,0.2c-0.6-1.1-1.3-2.1-1.6-3.2c0-0.8,0.2-1.6,0.5-2.3c0.3-0.2,0.4,0,0.6,0.3
	C238.9,29,239.1,29.6,239.5,29.8L239.5,29.8z"/>
<path d="M244.5,29.1c0,0.4-0.2,0.8-0.6,1c-0.4,0.1-0.8,0-0.9-0.5c-0.1-0.4,0.1-0.8,0.4-1C243.8,28.4,244.3,28.8,244.5,29.1
	L244.5,29.1z"/>
<path d="M147.6,30.3c0,0.3-0.3,0.7-0.6,0.8c-0.3,0.2-0.6-0.2-0.8-0.3c-0.1-0.3-0.2-0.6,0-0.9c0.1-0.2,0.4-0.2,0.6-0.3
	C147.2,29.8,147.5,29.9,147.6,30.3L147.6,30.3z"/>
<path d="M149.3,30.1c0.2,0.4-0.3,0.6-0.4,0.8c-0.5,0.2-0.7-0.2-0.9-0.5c-0.1-0.4,0.2-0.6,0.4-0.9C148.9,29.4,149.1,29.8,149.3,30.1
	L149.3,30.1z"/>
<path d="M245.6,30c0,0.5-0.8,1-0.9,1.6c-0.4,1.1-1.4,1.9-2.5,2.2c-0.2,0.2-0.6,0.5-0.9,0.5c-0.1-0.8,0.6-1.5,1.1-2.2
	C243.2,31,244.3,30.3,245.6,30L245.6,30z"/>
<path d="M146.8,31.7c0.6,0.7,0.9,1.3,1.6,1.9c0,0.2-0.1,0.4-0.3,0.4c-1.9-0.1-3.3-2.1-4.2-3.5c0.1-0.4,0.6-0.1,0.9-0.1
	C145.5,30.8,146.3,31,146.8,31.7L146.8,31.7z"/>
<path d="M246.1,32.2c-0.1,1.7-0.9,3.5-2.5,4.3c-0.4,0.2-0.9,0.6-1.3,0.3c0.8-1.7,2.1-3.1,3.5-4.6H246.1L246.1,32.2z"/>
<path d="M238.5,33.4c0.1,0.6-0.2,1-0.7,1.2c-0.4,0-0.7-0.3-0.9-0.6c0-0.4,0.2-0.8,0.6-0.9c0.1-0.1,0.3-0.1,0.5-0.1
	C238.2,33,238.3,33.2,238.5,33.4L238.5,33.4z"/>
<path d="M144.6,33.8c0.8,0.5,1.4,1.2,2.1,1.9c-0.5,0.4-1.2,0-1.7,0c-1.3-0.5-2.3-1.6-3.6-2c0-0.4,0.6-0.3,0.8-0.4
	C143.1,33.2,143.8,33.6,144.6,33.8L144.6,33.8z"/>
<path d="M187.1,21.9c-2.2-0.9-3.7,1.4-6,1.2c-0.3,0.2-0.2,0.4-0.4,0.6c-0.1,0.1-0.3,0-0.4,0c-0.1-1-0.4-1.8-0.6-2.8
	c-0.2-0.4-0.1-1-0.3-1.4c-1.3-3.5,3.1-0.8,4-2.9c0.8-1.8-1.5-2-2.1-3.2V13c-0.6-0.6-1.3-0.8-1.7-1.7c0.3-1,0.4-2.1,0.1-3.1
	c0-0.2-0.2-0.6-0.6-0.4c-0.8,1-1.3,1.9-2,2.9c-0.8-0.6-1.5-1.3-2.3-1.8c-0.6-0.1-1.1-0.7-1.8-0.4c-0.1,0.2,0,0.4,0.1,0.6
	c0,1.6,0.8,2.8,1.9,3.9l0.1,0.6c-0.7,1.6-0.5,3.5-0.7,5.3c-1.8,4.6-4.7,8.9-8.6,12.1c-2.3,2.6-5,5-5.3,8.5c-0.1,0.6,0.1,1.2-0.4,1.6
	c-1.3-0.5-2.6-1.1-3.7-2c-1.8-1.3-4.4-1.1-5.6-3.4c-0.5-0.9,0.1-1.8,0.6-2.5c1.3-1.3,1.2-3.6,0.4-5.1c-0.2,0-0.2,0.2-0.3,0.2
	c-0.1,2.4-2,4-1.3,6.6c0.2,0.8,0.6,1.2,0.8,2c-0.3-0.1-0.7-0.1-0.9-0.2c-0.9-0.1-1.7-0.5-2.7-0.4c-1.8,0.8-4.3-0.2-5.8,1.5
	c-0.2,0-0.6,0.1-0.5,0.4c0.9,0,1.7,0.2,2.6,0.2c1.4,0.2,2.3-0.9,3.3-1.4h0.2c0.4-0.4,1.1-0.2,1.6-0.2c2.5,0.3,4.4,1.5,6.5,2.7v0.2
	c-0.8,0.4-1.7,0.6-2.5,1c-0.9,0.7-1.9,1.6-2.2,2.7c-0.6,1,0.2,1.9,0.6,2.7c0,0.4,0.1,0.9,0.4,1c1.3-1.4,0.1-3,0.3-4.6
	c0.3-1.2,1.4-1.8,2.6-2.1c2.3-1,3.9,0.9,5.7,1.9c0,1.8,0.2,3.6-0.2,5.4c-0.6,0.2-1.3,0.3-1.9,0.3c-3.1,0.2-5.6,2-8.4,2.9
	c-1.3,0.4-2.8,0.4-4,0.9c1,0.3,2-0.1,3.1-0.1c3.9-0.6,6.9-3.6,11.1-3l0.1,0.1c-0.5,1-1.1,1.8-1.9,2.6c-0.1-0.4-0.2-0.8-0.6-1
	c-0.3-0.2-0.7,0-0.9,0.3c-0.1,0.2-0.1,0.4,0,0.6c0.2,0.4,0.5,0.4,0.9,0.6c-0.1,0.4-0.5,0.5-0.8,0.8c-1.1,1.9-3.4,1.1-4.7,2.4
	c-0.2,0.3-0.9,0.4-0.6,0.9c1.5,0.2,3-0.2,4.1-1c1.5-1.6,3-3.2,4.5-4.8c0.2,1.3-0.1,2.6-0.9,3.6c-0.4-0.2-0.6-0.5-1.1-0.6
	c-0.4,0.1-0.7,0.5-0.7,0.8c0.2,0.3,0.3,0.6,0.6,0.8c-1.3,1-3.1,1-4.6,1.5c-2.9,0.4-5.7,0.6-8.6,0.6c-1.4-0.1-3,0.4-4.3,0
	c-1.5,0.3-3.1-0.2-4.4,0.6c-0.2,0.2,0,0.4,0,0.6c1.8,1.2,4.3,0.2,6.4,0.6h15.6c1.2,0,2.3-0.1,3.2-0.6c2-1.2,3.1-3.2,4.2-5.3
	c0.4-0.7,0.7-1.6,0.8-2.4c0.4-1.4,1.6-2.3,3-2.4c0.2,2.1-0.2,4.2-0.7,6.1c-0.2,1.3-1.1,2.5-0.6,3.9c0.1,0.6,0.8,0.6,1.3,0.7
	c4.8-0.1,9.6-0.3,14.7,0.1c0.9,0.2,1.7,0.4,2.7,0.4c0.1-0.1,0.4-0.2,0.2-0.4c-0.1-0.4-0.4-1-1-1.1c-0.1-0.2-0.4-0.2-0.6-0.3
	c-2.5-1.4-5.6-0.7-8.6-0.6c-1.5,0.2-3.1,0.4-4.4-0.4c-0.6-0.7-0.2-3-0.2-3c0-0.9,2.2-7.2,2.5-7.7c0.1-0.6,0.3-1.2,0.2-1.8
	c0.3-0.8,0.2-1.8,0.2-2.7c0.2-1.3,0.8-2.5,1.2-3.7c0.2-0.6,0.4-1.2,0.7-1.8c0.2-0.8,0.3-1.5,0.8-2.1c1.3,0.8,2.6,0.8,3.2,2.3
	l0.5,3.3c0,0.2,0.2,0.6,0.4,0.4c1-0.7,0.7-2.2,0.7-3.2c0.2-1.2-0.6-1.8-1-2.9c-0.3-0.2-0.7-1.2-0.7-1.2c-0.2-0.9-2.1-1.5-1.6-2.6
	c0.2-0.9,0.5-1.8,1.3-2.3c0.1,0.1,0.2,0.2,0.2,0.3l0.5-0.3l0-3.3c1.3,0,3.2,0.2,4.5,0.2c0.4,0.1,0.6,0.4,1,0.4l0.3-0.4l3.2-0.6
	C189.2,23.5,188.4,21.9,187.1,21.9L187.1,21.9z"/>
<path fill="#FFFFFF" d="M190.6,23.4c0.1,0,0.2,0,0.3-0.1L190.6,23.4L190.6,23.4z"/>
<path d="M156,34.5c0,0.5-0.2,0.8-0.6,0.9c-0.3-0.1-0.6-0.2-0.8-0.5c-0.2-0.4,0.2-0.8,0.6-0.9C155.6,34.1,156,34.1,156,34.5L156,34.5
	z"/>
<path d="M153.5,34.5c0.2,0.2,0.3,0.6,0.2,0.9c-0.3,0.2-0.7,0.4-1,0.1c-0.2-0.2-0.5-0.5-0.3-0.8C152.7,34.4,153.1,34.2,153.5,34.5
	L153.5,34.5z"/>
<path fill="#FFFFFF" d="M208.7,34.9C208.7,34.9,208.7,35,208.7,34.9"/>
<path d="M238.9,35.6c0.2,0.4-0.2,0.8-0.5,0.9c-0.4-0.1-0.9-0.2-0.9-0.7c0-0.3,0.3-0.5,0.6-0.6C238.4,35.1,238.7,35.4,238.9,35.6
	L238.9,35.6z"/>
<path d="M241,35.5c0.1,0.2,0.4,0.5,0.1,0.7c-0.2,0.1-0.3,0.2-0.4,0.3c-0.4,0.1-0.8-0.1-1-0.5c-0.1-0.4,0.3-0.6,0.6-0.8
	C240.6,35.2,240.8,35.4,241,35.5L241,35.5z"/>
<path d="M143.5,36c-0.2,0.5-0.6,0.7-1.1,0.5c-0.1-0.1-0.2-0.3-0.3-0.5c0-0.3,0.1-0.6,0.4-0.7C143,35.4,143.4,35.6,143.5,36L143.5,36
	z"/>
<path d="M156.9,36.7c0,0.3-0.4,0.6-0.7,0.8c-0.4,0-0.7-0.3-0.9-0.6c0-0.3,0.2-0.7,0.5-0.8C156.2,35.9,156.7,36.2,156.9,36.7
	L156.9,36.7z"/>
<path d="M154.5,36.4c0.1,0.1,0.2,0.4,0.1,0.6c-0.2,0.2-0.6,0.6-1,0.3c-0.2-0.2-0.5-0.4-0.4-0.8c0.2-0.2,0.4-0.4,0.6-0.5
	C154.1,36,154.3,36.2,154.5,36.4L154.5,36.4z"/>
<path d="M247.1,36.9c0,0.3-0.3,0.6-0.5,0.8c-0.3,0.1-0.7,0-0.9-0.2c-0.2-0.1-0.2-0.4-0.2-0.6c0.2-0.3,0.5-0.4,0.8-0.5
	C246.6,36.4,246.9,36.6,247.1,36.9L247.1,36.9z"/>
<path d="M249.6,37.2c-0.1,0.4-0.4,0.7-0.8,0.7c-0.2,0-0.7-0.1-0.6-0.5c0-0.3,0.2-0.6,0.4-0.6C249,36.6,249.5,36.8,249.6,37.2
	L249.6,37.2z"/>
<path d="M148,37.8c0.1,0.5-0.1,0.8-0.5,1c-0.3,0.2-0.6,0-0.8-0.2c-0.2-0.2-0.4-0.5-0.2-0.8c0.1-0.4,0.4-0.3,0.7-0.4
	C147.6,37.4,147.8,37.5,148,37.8L148,37.8z"/>
<path d="M150,38.2c0.1,0.3-0.2,0.4-0.3,0.7c-0.2,0.1-0.5,0.2-0.7,0.1c-0.3-0.2-0.6-0.6-0.3-1C148.9,37.4,149.8,37.7,150,38.2
	L150,38.2z"/>
<path d="M244.7,38c0,0.4-0.3,0.7-0.6,0.9c-0.4,0.1-0.7-0.2-0.8-0.5c0-0.3,0.2-0.6,0.4-0.8C244.2,37.6,244.5,37.6,244.7,38L244.7,38z
	"/>
<path d="M248,38.6c-0.1,0.4,0,0.8-0.4,1c-0.3,0.1-0.7,0-1-0.2c-0.2-0.2-0.3-0.6-0.2-0.8c0.2-0.3,0.6-0.6,1-0.5
	C247.7,38.3,247.7,38.5,248,38.6L248,38.6z"/>
<path d="M146.5,39.4c0.2,0.3-0.2,0.4-0.3,0.6c-0.3,0.2-0.6,0-0.8-0.1c-0.3-0.2-0.2-0.6-0.1-0.8C145.6,38.5,146.4,39,146.5,39.4
	L146.5,39.4z"/>
<path d="M245.5,40.2c0.2,0,0.1,0.3,0,0.4c-1,0.5-2.4,0.6-3.2-0.2c-0.5-0.4-1.1-0.6-1.6-0.9c0.2-0.5,0.9-0.5,1.4-0.6
	C243.3,39.1,244.2,40.2,245.5,40.2L245.5,40.2z"/>
<path d="M148.4,39.8c0.1,0.3-0.2,0.4-0.2,0.7c-0.2,0.2-0.5,0.2-0.7,0.1c-0.4-0.2-0.5-0.7-0.3-1C147.7,39.2,148.2,39.4,148.4,39.8
	L148.4,39.8z"/>
<path d="M151.9,40.1c0.2,0.4-0.1,0.7-0.4,0.9c-0.3,0.2-0.5-0.1-0.8-0.1c-0.2-0.3-0.6-0.6-0.2-0.9C150.9,39.3,151.6,39.6,151.9,40.1
	L151.9,40.1z"/>
<path d="M197.8,41.8c-0.1,0.8-1.4-0.1-1.2,0.9c0.2,0.8,0.3,1.7,0.8,2.2c0.4,0.5,0.2,1.4,0.2,2c-0.3,0.6-0.9,1-1.5,1.3
	c-1.1-0.1-2.8,0.6-3.3-0.8c-0.2-0.6-0.6-1.2-0.6-1.9c0.1-0.1,0.3-0.1,0.4-0.2c0-0.3-0.3-0.4-0.3-0.7c1.3-0.2-0.5-1.4,0.6-1.4
	c0.9,0.9,2.4,0.6,3.2,1.7c0.2,0.2,0.3,0.4,0.6,0.5c-0.2-0.9-0.6-1.9-0.8-2.9c-0.1-0.5,0.1-1,0.5-1.3
	C196.8,40.6,197.4,41.3,197.8,41.8L197.8,41.8z"/>
<path d="M155.4,41.5c0.1,0.4-0.2,0.6-0.4,0.8c-0.4,0.2-0.6-0.2-0.7-0.4c-0.1-0.4,0.2-0.6,0.4-0.8C154.9,41.1,155.2,41.2,155.4,41.5
	L155.4,41.5z"/>
<path d="M179.9,41.9c0.5,1.6,0.3,3.2-0.5,4.5c0,0.3,0.1,0.8-0.4,0.8c-1.1-1.5-0.3-3.6,0.2-5.1C179.3,41.7,179.8,41.5,179.9,41.9
	L179.9,41.9z"/>
<path d="M213.8,42.7c0.6,1.1,0.6,2.6,0.1,3.7l-0.3,0.3c-0.4-0.9-0.8-1.8-0.9-2.8c0.2-0.7,0.4-1.4,0.5-2.1
	C213.7,41.6,213.7,42.3,213.8,42.7L213.8,42.7z"/>
<path d="M158.5,43.1c-0.2,0.5-0.9,0.6-1.3,0.9c-1,0.7-2.3,0.9-3.5,0.7c1-1.4,2.6-2.3,4.5-1.9C158.2,43,158.4,42.9,158.5,43.1
	L158.5,43.1z"/>
<path d="M142.2,44.5c1.5,1,1.9,2.5,2.7,3.9c0.1,0.2,0.5,0.2,0.4,0.5c-0.3,0.2-0.6-0.2-1.1-0.2c-1.5-0.7-2.5-2.4-2.4-4.1
	C141.8,44.5,142,44.5,142.2,44.5L142.2,44.5z"/>
<path d="M212.3,45.8c0,0.4,0,0.8-0.4,0.9c-0.4,0.1-0.8-0.1-0.9-0.5c-0.1-0.3,0.1-0.4,0.2-0.6C211.5,45.3,212.1,45.4,212.3,45.8
	L212.3,45.8z"/>
<path d="M229,47.9c0-0.8,0.2-1.5,0.3-2.2c0.1-0.2,0.2-0.5,0.2-0.8c1-1.3,2.9-0.9,4.4-0.8c0.6,0.3,1.3,0.3,2,0.4
	c0.3-0.2,0.7-0.2,1-0.2c1.3-0.7,0.4-2.2,0.5-3.3l-0.5-1.2c-0.1-0.2-0.2-0.5-0.3-0.8c-0.2-0.3-0.4-0.8-0.6-1.1
	c-0.7-1.8-2-2.8-3.1-4.2c-2-2.6-5.2-4.1-8.4-5.2c-3.1-1.1-6.3,0.3-9.1,1.3c-0.9-0.2-1.3-0.9-1.5-1.7c-0.2-1.5,0.2-3,0.8-4.2
	c0.1-1,0.8-1.8,1.1-2.7c0.7-2.2,1.5-4.4,1.6-6.9c0.1-1.5-1-2.5-2.1-3.2c-0.8-0.2-1.6-0.2-2.2,0.4c-0.5,1.1-1.6,1.8-2.6,2.3
	c-0.1,0.7,0.8,0.2,1,0.5c0.9,0.2,1.9-0.1,2.6,0.4c0.1,1.6-0.8,2.9-1.7,4.1c-1.3,2-2.8,4-3.6,6.2l-0.2-0.2l0.2,9.8
	c1.3,2.1,2.8,4.5,5.2,5.3c1.3,1,2.9,2.3,4.6,1.4c0.9-0.3,1,1,1.4,1.5c0.5,1.5-0.6,2.5-0.7,3.9l-1,2.2c-1.2,2.3-2.3,4.8-4.1,6.8
	c-0.6,0-1,0.6-1.5,0.7c-0.3,0.4-1,0.1-1.3,0.3c-1.2,0.5-3,0.2-3.8,1.4c0.1,0.1,0.2,0.2,0.3,0.2c2.4,0,5.1,0.2,7.7,0.1
	c0.3-0.1,0.6-0.4,0.6-0.8c-0.4-0.7,0.1-1.3,0.4-1.8c0.2-1,0.8-1.6,1.1-2.5c0.8-1.6,1.8-3.2,2.7-4.9l1.2-2c0.3-0.7,0.8-1.5,1.2-2.2
	c0.3-0.3,0.5-0.7,0.7-1.1c0-0.4-0.2-0.6-0.4-0.8c0.3-0.3,0.7-0.2,1.1-0.3c1,0.6,2,1.6,2.2,2.6l0.4,1l0.2,0.5l-0.1,1.3l0.2,1.2
	c0.2,1.9-0.2,3.9-0.4,5.8c-0.7,2.3-3.3,2.1-5.2,2.6c-0.5,0.3-1.4,0.2-1.4,1c2.3,0.5,5,0.2,7.5,0.2c0.4-0.2,0.5-0.5,0.7-0.9
	c0.1-0.5,0.6-1,0.4-1.5c-0.4-0.6,0-1.4-0.2-2.2c0.1-0.2,0.1-0.5,0-0.8c0.3-1.2,0.2-2.6,0.5-3.7L229,47.9L229,47.9z"/>
<path d="M248.5,46.3c-1.3,1.8-2.6,3.8-4.8,4.5c-0.2,0-0.3,0.1-0.4-0.1c1.3-1.4,2.1-3.7,4.2-4.2C247.8,46.3,248.2,46.2,248.5,46.3
	L248.5,46.3z"/>
<path d="M140.3,48.3c-0.2,0.2,0,0.5-0.4,0.6c-0.3,0.2-0.7,0-0.8-0.4c-0.2-0.4,0.2-0.8,0.5-0.9C139.9,47.8,140.2,47.9,140.3,48.3
	L140.3,48.3z"/>
<path d="M151.7,48.9c0.1,0.4-0.3,0.4-0.5,0.4c-1.7,0.6-3.4,0-4.6-1.2c0-0.2,0-0.3,0.2-0.4C148.4,48.2,150.3,47.9,151.7,48.9
	L151.7,48.9z"/>
<path d="M142.4,48.3c0.1,0.2,0.1,0.4,0.1,0.6c-0.2,0.4-0.6,0.4-1,0.4c-0.2-0.1-0.4-0.3-0.5-0.5c0-0.4,0.4-0.6,0.7-0.8
	C142,48.1,142.2,48.1,142.4,48.3L142.4,48.3z"/>
<path d="M179.6,48.5c0.1,0.4-0.2,0.6-0.5,0.8c-0.4,0.1-0.7-0.1-0.8-0.3c-0.1-0.3,0-0.7,0.3-0.8C178.9,48.1,179.5,48.2,179.6,48.5
	L179.6,48.5z"/>
<path d="M250,48.7c0.1,0.4-0.2,0.6-0.5,0.8c-0.2,0.1-0.5,0-0.8-0.1c0-0.2-0.3-0.4-0.2-0.6c0.2-0.4,0.5-0.5,0.9-0.5
	C249.7,48.5,249.9,48.5,250,48.7L250,48.7z"/>
<path d="M252.7,48.5c0.2,0.4,0,0.6-0.2,0.9c-0.2,0.3-0.5,0.4-0.7,0.2c-0.2-0.2-0.6-0.4-0.6-0.7c0-0.3,0.4-0.6,0.6-0.7
	C252.2,48.1,252.3,48.5,252.7,48.5L252.7,48.5z"/>
<path d="M138.6,49.7c0,0.3-0.2,0.4-0.3,0.7c-0.2,0.1-0.4,0.2-0.6,0.2c-0.3-0.1-0.5-0.4-0.6-0.6c0.1-0.4,0.3-0.7,0.7-0.8
	C138.1,49.2,138.5,49.3,138.6,49.7L138.6,49.7z"/>
<path d="M222.1,49.7c0.1,0.2,0,0.4,0,0.5c-0.2,0.3-0.6,0.6-1,0.4c-0.2-0.2-0.5-0.5-0.4-0.8C221.1,49.3,221.8,49.2,222.1,49.7
	L222.1,49.7z"/>
<path d="M145,50.3c-0.1,0.3-0.2,0.6-0.6,0.6c-0.4,0-0.5-0.3-0.7-0.4c0-0.4,0-0.7,0.3-0.9C144.5,49.4,145,49.8,145,50.3L145,50.3z"/>
<path d="M141.2,50.4c0.1,0.4-0.2,0.7-0.4,0.9c-0.5,0.2-0.9-0.2-1.1-0.6c0-0.4,0.3-0.8,0.7-0.9C140.8,49.8,141,50.2,141.2,50.4
	L141.2,50.4z"/>
<path d="M224.7,50.3c0.1,0.4,0,0.8-0.4,1c-0.5,0.2-0.9-0.2-1.1-0.6c0.2-0.3,0.2-0.8,0.7-0.8C224.3,49.9,224.5,50,224.7,50.3
	L224.7,50.3z"/>
<path d="M143,50.5c0.1,0.3-0.1,0.4-0.2,0.6c-0.2,0-0.3,0.2-0.6,0.2c-0.2-0.2-0.5-0.3-0.5-0.6c0-0.4,0.2-0.6,0.5-0.8
	C142.7,49.9,142.9,50.1,143,50.5L143,50.5z"/>
<path d="M247.9,50.8c-0.1,0.3-0.4,0.5-0.7,0.6c-0.3,0.1-0.5-0.2-0.8-0.3c-0.2-0.2-0.1-0.5,0-0.7C246.8,49.7,247.9,50,247.9,50.8
	L247.9,50.8z"/>
<path d="M250.9,50.9c-0.1,0.4-0.6,0.6-1,0.7c-0.4-0.2-0.8-0.4-0.5-0.9c0.2-0.2,0.2-0.3,0.5-0.4C250.4,50.2,250.8,50.5,250.9,50.9
	L250.9,50.9z"/>
<path d="M232,51.2c0.2,0.5-0.3,0.7-0.6,0.9c-0.3,0-0.5-0.2-0.8-0.3c-0.1-0.4,0.1-0.8,0.6-1C231.6,50.8,231.8,50.9,232,51.2L232,51.2
	z"/>
<path d="M221.1,51.7c0.2,0.1,0.1,0.4,0.1,0.5c-0.2,0.2-0.6,0.6-0.9,0.3c-0.3-0.2-0.5-0.4-0.4-0.8C220.1,51.3,220.9,51.3,221.1,51.7
	L221.1,51.7z"/>
<path d="M223.4,52c0,0.3,0,0.5-0.3,0.6c-0.3,0.3-0.6,0-0.9-0.1c-0.1-0.2-0.2-0.4,0-0.6c0.1-0.2,0.3-0.3,0.5-0.3
	C222.9,51.7,223.2,51.7,223.4,52L223.4,52z"/>
<path d="M156,52c0.2,0.2,0,0.5-0.1,0.8c-0.2,0.2-0.6,0.4-1,0.2c-0.4-0.2-0.4-0.7-0.3-1c0.2-0.1,0.2-0.4,0.6-0.4
	C155.6,51.7,155.8,51.8,156,52L156,52z"/>
<path d="M236.3,52.2c0.1,0.4-0.3,0.6-0.6,0.6c-0.5,0.2-0.7-0.2-0.9-0.5c0-0.2,0.2-0.4,0.3-0.6C235.7,51.5,236,51.9,236.3,52.2
	L236.3,52.2z"/>
<path d="M234.1,52.2c0.2,0.4-0.3,0.6-0.4,0.8c-0.3,0.1-0.6,0.1-0.9-0.2c-0.2-0.1-0.2-0.4-0.2-0.6c0.2-0.2,0.4-0.4,0.6-0.5
	C233.6,51.7,234,51.9,234.1,52.2L234.1,52.2z"/>
<path d="M252,52.7c0.1,0.6-0.6,0.3-0.9,0.4c-1.7,1-3.8,0.2-5.4-0.4c0.1-0.5,0.7-0.3,1-0.5c1.7-1.1,3.4,0.2,5.2,0.3L252,52.7
	L252,52.7z"/>
<path d="M143.5,52.2l-0.2,0.3c-1.5,0.9-3.4,1.5-5.1,0.9l-0.2-0.2c1.5-1.1,3.4-1.4,5.3-1.1L143.5,52.2L143.5,52.2z"/>
<path d="M240.3,52.5c0,0.3-0.2,0.6-0.4,0.8c-0.4,0.1-0.9,0-1-0.4c-0.1-0.3,0.2-0.6,0.5-0.8C239.7,52,240.2,52.1,240.3,52.5
	L240.3,52.5z"/>
<path d="M150.6,52.6c-0.2,0.3-0.1,0.6-0.5,0.8c-0.4,0.2-0.9-0.2-1-0.5c-0.1-0.4,0.2-0.6,0.4-0.8C150,51.9,150.3,52.3,150.6,52.6
	L150.6,52.6z"/>
<path d="M147.8,52.8c0.1,0.3-0.1,0.4-0.2,0.6c-0.2,0.2-0.6,0.2-0.8,0.1c-0.3-0.2-0.6-0.5-0.4-1c0.2-0.2,0.4-0.3,0.6-0.4
	C147.3,52.3,147.7,52.4,147.8,52.8L147.8,52.8z"/>
<path d="M243.1,53.7c0,0.4-0.3,0.6-0.6,0.7c-0.3,0-0.6-0.2-0.8-0.4c-0.1-0.2-0.1-0.6,0.2-0.8c0.1-0.1,0.4-0.1,0.5-0.2
	C242.8,53.1,243,53.4,243.1,53.7L243.1,53.7z"/>
<path d="M144.8,53.3c0.1,0.3-0.2,0.4-0.2,0.7c-0.1,0.7-0.6,1.1-0.9,1.7c-0.8,0.9-1.8,0.9-2.9,1.2l-0.2-0.3c1.2-1.5,2.4-2.6,4-3.4
	L144.8,53.3L144.8,53.3z"/>
<path d="M241.1,54.2c0.1,0.5-0.3,0.6-0.6,0.8c-0.4,0-0.6-0.2-0.8-0.5c-0.1-0.4,0.3-0.6,0.5-0.8C240.6,53.6,241,53.9,241.1,54.2
	L241.1,54.2z"/>
<path d="M149.4,54.2c0,0.1,0,0.2,0.1,0.2c0,0.4-0.4,0.6-0.6,0.8c-0.4,0-0.6-0.1-0.9-0.4c-0.2-0.4,0-0.8,0.4-0.9
	C148.8,53.8,149.3,53.8,149.4,54.2L149.4,54.2z"/>
<path d="M248.4,55.4c0.4,0,0.5-0.5,0.9-0.6c0.4-0.1,0.8,0.2,1,0.4c0.2,0.5-0.2,0.7-0.5,0.9c-0.3,0.2-0.9-0.2-0.8,0.3
	c0.3,0.2,0.5,0.5,0.6,0.8c-0.1,0.2-0.4,0.1-0.5,0c-1.2-0.5-2.4-1.3-2.9-2.5c-0.2-0.4-0.9-0.6-0.5-1
	C246.8,53.7,247.8,54.7,248.4,55.4L248.4,55.4z"/>
<path d="M252.2,54.1c0.2,0.2,0.1,0.6,0,0.8c-0.2,0.4-0.8,0.2-1.2,0.2c-0.2-0.2-0.4-0.4-0.3-0.7c0.2-0.2,0.3-0.4,0.6-0.5
	C251.7,53.8,252,53.9,252.2,54.1L252.2,54.1z"/>
<path d="M237.8,56.3c0.4,0.4,0.7,1.1,0.9,1.6c-0.1,0.1-0.3,0.1-0.4,0.1c-1.3-0.8-3.1-1.6-3.6-3.2c-0.1-0.2-0.4-0.4-0.4-0.6
	c1-0.2,2,0.6,2.7,1.1C237.4,55.7,237.7,55.9,237.8,56.3L237.8,56.3z"/>
<path d="M147.2,54.8c0.2,0.4-0.2,0.6-0.4,0.8c-0.4,0.1-0.7-0.1-0.9-0.3c-0.3-0.4,0.2-0.8,0.6-1C146.8,54.3,147,54.6,147.2,54.8
	L147.2,54.8z"/>
<path d="M242.8,55.7c0,0.2-0.3,0.4-0.4,0.6c-0.3,0-0.6,0.2-0.9-0.1c-0.1-0.2-0.3-0.5,0-0.7C241.9,54.9,242.5,55.3,242.8,55.7
	L242.8,55.7z"/>
<path d="M252.7,56.3c0.1,0.5-0.2,0.8-0.6,1c-0.4,0.1-0.7-0.2-1-0.4c-0.2-0.2,0-0.5,0-0.8c0.3-0.2,0.6-0.4,1-0.3
	C252.3,56,252.5,56.1,252.7,56.3L252.7,56.3z"/>
<path d="M225.2,61.8c0,0.5-0.9,0.4-1.2,0.7c-1.2,0.6-2.7,0.6-4.2,0.6v-0.2C221.3,61.6,223.3,61.2,225.2,61.8L225.2,61.8z"/>
<path d="M167.3,63.5c0,0.4-0.2,0.6-0.6,0.7c-0.3,0-0.6-0.2-0.7-0.4c-0.2-0.5,0.2-0.7,0.5-0.9C167,62.9,167.3,63.2,167.3,63.5
	L167.3,63.5z"/>
<path d="M224.5,63.9c-0.1,0.4-0.2,0.8-0.6,0.9c-0.4,0.1-0.6-0.1-0.9-0.3c-0.2-0.2-0.1-0.4-0.1-0.6C223.2,63.2,224.3,63.2,224.5,63.9
	L224.5,63.9z"/>
<path d="M232.4,64.1c-1,0.6-2.1,1.4-3.4,1.4l-2.1,0l-0.2-0.2c1.3-1.6,3.7-1.6,5.8-1.4V64.1L232.4,64.1z"/>
<path d="M156.5,65c0,0.4-0.2,0.6-0.5,0.8c-0.4,0.1-0.7-0.1-0.8-0.4c-0.2-0.4,0-0.7,0.3-0.9C155.9,64.2,156.3,64.7,156.5,65L156.5,65
	z"/>
<path d="M158.5,65.4c0.1,0.2-0.1,0.3-0.2,0.5c-0.2,0.1-0.6,0.2-0.8,0c-0.3-0.2-0.4-0.4-0.2-0.7c0.1-0.2,0.4-0.2,0.5-0.4
	C158.1,65,158.3,65.2,158.5,65.4L158.5,65.4z"/>
<path d="M143.3,69.5c-0.4,0.5-1-0.1-1.5-0.4c-1.4-0.8-1.3-2.4-2.7-3.3c0.2-0.5,0.5,0,0.8,0c0.2,0.2,0.6,0.3,0.8,0.4
	C142,67,142.4,68.3,143.3,69.5L143.3,69.5z"/>
<path d="M258.9,54c-0.6-1.2-1.7-1.6-3-1.6c-1,0.1-1.8,0.8-2.2,1.6c-0.2,0.9,0.1,1.7,0.8,2.2c0.3,0.1,0.6,0.1,0.8-0.2
	c0.2-0.5-0.4-0.5-0.4-0.9c-0.2-0.6,0-1,0.4-1.4c0.4-0.4,1.1-0.2,1.5-0.2c0.5,0.3,1,0.6,1.2,1.2c0.2,0.7,0.2,1.4,0,2.1
	c-0.4,1-1.4,1.8-2.5,2c-3.3,0.5-39.4,0.3-39.4,0.3c-4.2,0.4-9.1-0.8-12.7,1.4c-1.7,0.8-2.5,2.6-2.9,4.3c-1.1,1-2.2,2.1-3.1,3.2
	l-0.1-0.1c0.2-1,0.6-1.8,0.8-2.8c0.6-0.8,0.6-1.9,1-2.8c1.5-2.4,2.9-4.9,5.3-6.6c1-1.3,2.7-1.1,4.2-1.1c1.6,0.8,3.5,1,5.5,0.8
	c0.1-0.1,0.1-0.2,0.1-0.3c-0.6-0.5-1.5-0.7-2.1-1.2c-1.6-0.8-3.1,0.2-4.8,0.1c-0.1-0.1-0.2-0.1-0.1-0.2c1.5-1.1,3.2-1.9,4.9-2.6
	c1.4-0.8,2.9-1.2,4.3-1.7c0.6,0,1.2-0.5,1.7-0.2l2.1-0.6c0.1,0,0.2,0.2,0.3,0.1c1.8-0.6,4,0,6.1-0.1l0.3,0.2l1.9,0.5
	c0.7,0.1,1,0.9,1.8,1c0.4-0.6-0.4-0.8-0.6-1.2c0.9-0.2,1.9,0,2.7,0.4l-0.4,0.4c-0.2,0.4,0.1,0.8,0.5,0.9c0.3,0.1,0.5-0.1,0.7-0.2
	c0.5-0.4,0-0.7,0.1-1c2.9,0.5,5.8,1.2,8.5,2.4c0.8,0.2,1.5,0.8,2.3,0.8c-0.8-0.8-2-1.2-3-1.6c-0.7-0.4-1.6-0.4-2.1-1
	c0.1-0.2,0.4-0.1,0.5-0.3c1.3-0.2,2.5-1.2,3.5-2.2c0.1-0.2,0.5-0.2,0.5-0.5c-0.4-0.4-1,0.1-1.4,0.1c-1.7,0.3-2.4,2.3-4,2.6
	c-2-0.5-4.1-1-6.1-1.5c-1-0.2-2.1-0.2-3-0.6l-2.2-0.2h-4c0-0.1-0.2-0.1-0.1-0.2c1.4-0.4,2.7-1.2,4.1-1.6l10.6-4.9
	c1.1-1,2.1-2.1,3-3.3c0-0.3-0.2-0.6-0.4-0.8c-0.3-0.1-0.6-0.1-0.8,0.2c-0.5,0.4,0,0.8,0,1.2c-0.5,0.6-1.2,1.2-1.8,1.6
	c-0.2,0-10.9,4.9-10.9,4.9c-1.6,0.7-3.2,1.4-4.8,1.8l-2.3,0.4c-0.2,0.5-0.6,0.8-1,0.9c-0.6,0.1-1.1,0.5-1.8,0.5
	c-5.2,2-10.5,4.1-14.6,8.2c0.2-0.5,0.4-1.1,0.4-1.7c-0.1-0.6,0-1.3-0.4-1.8c-0.1-0.2-0.4-0.9-0.3-1.1l-0.6,0.4
	c-0.4,0.9-0.7,2.5-0.3,3.4c0.1,0.7,0.7,1.6,0.2,2.2c-1.9,2.3-3,5.1-4.2,7.8c-0.5-0.1-0.7-0.5-0.9-1c1.3-1.7,2.4-3.6,2.8-5.8
	c0.3-0.2,0.1-0.7,0.4-1c-0.1-0.6,0.4-1.3,0-1.8c0.3-0.9-1.2-1.7-0.3-2.2l-0.7,0.4c-1.7,2.2,0.9,5.6-1.1,7.8v0.2
	c-0.6,0.7-0.8,1.4-1.6,1.9c-1-0.4-1.3-1.5-1.9-2.3c-0.9-0.8-0.9-2.6-0.4-3.7c0.4-1.2-0.2-2.2-0.4-3.2l-0.4-0.2
	c-1,1.2-1.3,3.2-0.6,4.7c0.4,0.7,0.4,1.7,1,2.3c0.4,1.2,1.1,1.9,1.7,3c0.2,0.4-0.2,0.5-0.4,0.7c-0.4-0.3-0.4-0.9-0.8-1.2
	c-1.3-2.8-3-5-5.1-7.3c-0.1-0.4-0.4-0.7-0.2-1.1c0.8-0.7,0.9-2.1,0.5-3c-0.1-0.2-0.3-0.4-0.3-0.6l-0.6-0.5c0.1,1.4-0.8,2.6-0.4,4.1
	v0.1c-4.1-3.1-8.6-5.8-13.2-8l-0.4,1c1.2,0.3,4.2,2.2,4.2,2.2c1.4,0.5,2.7,1.4,4,2.1c5.4,3,9,8,11.4,13.5c0,0.4,0.4,0.9,0.2,1.4
	c-0.8-1.3-2-2-3-3c-0.3-1.9-1.4-3.7-3-4.4c-0.6-0.9-1.9-1-2.9-1.2l-14.4-0.1c-11.7-0.2-22.5,0.4-34.1,0.2c-1.6-0.2-3.6-0.7-4.1-2.4
	c-0.3-0.6-0.3-1.6,0-2.2c0.4-0.8,1.2-1,2-1.1c0.6,0.1,1.1,0.7,1.3,1.1c0,0.5-0.4,1-0.6,1.4c0,0.2,0.2,0.5,0.5,0.4
	c0.5-0.2,0.9-0.8,1-1.3c0-0.3,0.2-0.7-0.1-0.9c-0.2-0.8-1.1-1.4-1.9-1.6c-1-0.1-2,0.2-2.7,0.9c-1,0.8-0.9,2.2-0.6,3.4
	c0.6,1.8,2.5,3,4.3,3.2l38.6,0.2c3.8,0.2,8-0.4,11.8,0.3c1.4,0.4,2.9,1.5,3.2,3c0,0.1-0.2,0-0.3,0c-3.1-2-7.3-2.8-11.3-2.3
	c-1.6-0.1-3,0.5-4.4,0.9c-0.8,0.2-1.5-0.2-1.9-0.6c-1.4-1.3-3.9-1.2-5.8-0.7c0,0.1,0,0.2,0,0.3c1.9-0.2,3.1,1.5,4.8,1.7
	c0.4,0.1,0.7-0.4,1.1,0c-1.8,0.9-3.6,1.9-5.5,2.5c-0.6-0.1-0.9-0.7-1.4-1c-0.8-0.8-2.1-0.5-3.2-0.6c-0.4,0.1-0.7-0.2-0.9,0
	c0.3,0.6,1,1,1.7,1.3c1,0.4,2.1,0,3.1,0.6c-0.2,0.3-0.6,0.4-0.8,0.6c-1.9,0.7-3.4,2.4-5.5,2.3c-2.2,0.2-4.4-0.4-5.9-1.9
	c-0.6-1.6-2.3-2.4-4-2.3c-0.1,0.1-0.3,0.1-0.2,0.3c0.9,0.5,1.5,1.6,2.4,2.2c0.6,0.7,1.6,0,2.1,0.8c0.8,0.5,1.7,1,2.6,1.1
	c0.6,0.3,1.3,0.4,2.1,0.6l-0.3,0.2c-3.6,1.2-7.8,1.3-11.8,1.2c-1.2,0-2.3-0.4-3.5-0.4c0.2,0.2,0.6,0.4,1,0.6
	c-0.3,0.2-0.7,0.3-1.1,0.3c-0.5,0.1-1,0.2-1.5,0.4c-0.6,0-1.2,0.2-1.7,0.4c-0.7,0.7-1.5,1.5-2.3,1.8c0,0.2,0,0.4,0.2,0.4
	c0.8-0.3,1.7-0.1,2.5-0.4c1.3-0.1,2.1-1.6,3.1-2.2c1.1-0.9,2.7-0.7,4-0.5c0.8,0.2-0.1,0.5,0.2,1c0.3,0.3,0.6,0.6,1,0.5
	c0.1-0.1,0.2-0.2,0.3-0.2c0.2-0.3,0.2-0.7,0-1c0.6-0.4,1.3,0,1.9-0.2c1.5,0,3-0.4,4.5-0.4c0.2,0,0.5-0.3,0.8,0
	c-0.1,0.3-0.5,0.4-0.4,0.8c0.1,0.4,0.5,0.5,0.8,0.6c0.4-0.2,0.8-0.4,0.6-1c-0.1-0.3-0.4-0.3-0.6-0.4c0.8-0.4,1.8-0.5,2.6-0.9
	c0.6-0.1,1.2-0.3,1.7-0.6c0.5,0,1-0.5,1.4-0.3c-0.2,0.7-0.5,1.3-0.8,1.9c-0.6,2.1-1.1,4.9,0,7c0.1,0,0.2,0,0.2-0.1
	c-0.8-2.1-0.4-4.6,0.4-6.6c0.6-3.4,4-4.4,6.5-5.7l0.1,0.2c-0.7,1.8-1.7,3.4-1.5,5.6c0.1,0.4-0.2,0.7,0,1c0.7-0.4,1.1-1.2,1.5-1.8
	c0.3-1.8-0.8-4,1.1-5.4c3.3-1.3,6.3-3,10.1-3c0.1,0.1,0.4-0.1,0.4,0.2c-0.8,0.9-1.9,1.7-2.3,2.8c-1.3,1.8-1.2,4.8-0.7,6.9
	c0.4,1.2-0.7,1.9-1.2,2.9c-0.2,0.3-0.3,0.9-0.5,1.3l0.8,0.1c0.7-0.7,1.3-1.6,1.3-2.6c0.1,0.4,0.4,0.7,0.8,0.8
	c0.3-0.4-0.2-0.8-0.3-1.2c0.6-0.4,0.9,0.4,1.4,0.6c0.8,0.2,1.5,0.6,2.4,0.6l0.3-0.3c-0.9-1.4-2.6-1.6-4.1-1.7
	c-0.8-1.3-0.8-3-0.7-4.6c0.2-0.8,0.3-1.7,0.8-2.5c0.2-0.6,0.8-1.1,1.1-1.5c0.7-0.7,1.6-1.2,2.5-1.4h0.1c0,0.1,0,0.1,0,0.1
	c-1.1,0.8-1.2,2-1.8,3c-0.7,1-1,2.4-0.4,3.5c0.2,0.5,0.1,1.3,0.7,1.7c0.5-0.7,0.6-1.6,0.8-2.4c-0.1-1.3-0.9-2.6-0.2-3.8
	c0.4-1,1.2-1.4,2.1-1.8c2.2-0.2,4.1,0.9,6,1.8c0.4,0.3,1.1,0.5,1.2,1.1c0,1.1-0.6,2.2-1.5,2.7c-1.1,0.6-2.6,0.7-3.6,0
	c-0.6-0.6-0.8-1.6-0.6-2.4c0.4-0.5,1-0.9,1.7-0.6c0.4,0.2,0.8,0.6,1.3,0.4c0.2-0.1,0.3-0.4,0.2-0.6c-0.4-0.2-0.6-0.8-1.2-0.9
	c-0.8-0.1-1.7-0.1-2.2,0.4c-0.8,0.7-1.2,1.8-0.9,2.8c0.3,1.3,1.2,2.2,2.5,2.6c1.8,0.4,3.7-0.1,4.9-1.7c0.5-0.5,0.6-1.1,0.9-1.7
	c1.9,1.2,3.3,3.2,4.1,5.3c0,0.7,0.2,1.4,0,2l1.4,0.1c-0.1-0.3,0-0.7,0.1-1c0.5-2.6,2.1-4.8,4.1-6.6c0.7-0.4,0.5,0.5,0.7,0.8
	c0.6,1.5,2,2.6,3.5,3c1.7,0.3,3.3-0.1,4.3-1.4c0.5-1,1.2-2.4,0.3-3.4c-0.6-0.7-1.3-1-2.2-1c-1,0-1.7,0.7-2.2,1.5
	c0,0.3,0,0.7,0.2,0.8c0.2,0,0.5,0,0.6-0.2c0.1-0.6,0.6-0.9,1.1-1.2c0.4-0.2,0.9,0,1.3,0.2c0.4,0.4,0.5,1,0.6,1.6
	c-0.1,0.8-0.6,1.6-1.3,1.9c-1.2,0.6-2.8,0.3-3.8-0.4c-0.5-0.5-0.8-1.1-1.1-1.8c-0.1-0.6-0.3-1.2,0-1.8c1.7-1,3.6-1.8,5.7-2
	c0.8,0.2,1.5,0.7,2.1,1.3c1.8,1.9-0.4,4.6,0.9,6.6c0.5-0.1,0.5-0.7,0.7-1.1c0.6-1.4-0.2-3-0.5-4.4c-0.5-0.9-0.8-1.6-1.5-2.4
	c0.2-0.1,0.3-0.1,0.5-0.1c0.8,0.6,1.7,1.2,2.4,2.1c1.2,1.9,1.7,4.1,1.5,6.6c-0.3,1.2-1.6,1.8-2.6,2.2c-0.4,0.3-0.9,0.8-1.1,1.3
	c0.5,0.3,1.2,0,1.6-0.2c0.8-0.3,1.2-1.2,1.7-1.7c0.1,0,0,0.2,0.1,0.2c0,0.4-0.2,1,0.2,1.2c0.2-0.6,0.2-1.4,0.4-2
	c0.5,0.6,0.6,1.3,0.8,2c0.4,0.7,1,1.7,1.9,1.8c0.2-0.4,0-0.7-0.1-1c-0.1-1-1-1.5-1.5-2.2c-1.4-1.9-0.8-4.9-1.8-7.1
	c-0.4-1.2-1.2-2-2.1-3l0.2-0.2c1.9,0,3.6,0.6,5.4,1c2.2,1.1,5.4,0.8,6.4,3.7c0.4,1.6,1.2,3.1,2.3,4.3l0.1-0.1c0.2-0.4,0.2-1.1,0-1.5
	c-0.2-2-2-2.5-2.9-4.2l0.1-0.2c1,0.3,1.9,0.5,2.9,0.9c3.2,0.9,5.4,4,5.8,7.2c0,2.6-0.5,4.7-1.5,6.8c-0.1,0.3-0.7,0.7-0.3,1
	c0.4-0.3,0.5-0.8,0.8-1.2c1.3-2.2,2-5.2,1.3-8c0-0.5-0.6-0.9-0.4-1.4c0.2,0.2,0.4,0.3,0.7,0.4c0.2-0.2,0.6-0.2,0.8-0.4
	c0-0.2,0.2-0.5,0-0.7c-0.2-0.4-0.8-0.4-1.2-0.3c-0.2,0.2-0.4,0.6-0.5,0.9c-0.4-0.7-0.8-1.6-1.4-2.1l0.1-0.1c1.8,0.6,3.4,1.5,5.2,2
	c0.4,0.2,0.8,0.4,1.4,0.4c1.5,0.6,3.3,0.8,4.9,1.2c1.2-0.1,2.2,0.4,3.4,0.2v-0.1l0,0c-0.4-0.6-1.4,0-1.9-0.4c-2.7-0.3-5.4-1-7.8-2
	c0-0.1,0.2-0.1,0.3-0.1c0.4-0.2,0.7-0.6,0.6-1c-0.2-0.3-0.5-0.4-0.9-0.4c-0.2,0.1-0.6,0.4-0.6,0.7c0,0.3,0.3,0.7,0.6,0.8
	c-0.1,0.1-0.2,0-0.4,0c-1.2-0.6-2.4-1.1-3.6-1.6c-0.4-0.1-0.8-0.4-1.2-0.5c-0.9-0.4-1.8-0.9-2.7-1.2c-2.5-1.3-5.4-2-8.1-3
	c-0.6-0.2-1.2-0.3-1.7-0.5c-1-0.3-2-0.5-3-0.8c-3.4-0.8-7.9-0.9-10.8,0.9c-0.5-0.2-0.8,0.6-1,0.1c0.8-2.2,3.3-2.9,5.4-3
	c15.9-0.2,30.8-0.3,46.5-0.5c1.8,0,3.6-0.6,4.6-2.3C259.3,56.7,259.4,55.1,258.9,54L258.9,54z M195.8,68.7c-0.2,0.5-0.5,0.9-0.4,1.4
	l-0.2,0.1c0.1-0.6-0.5-1-0.3-1.6c-0.3-0.5-0.3-1.1-0.6-1.6c-0.4-0.6,0.3-0.9,0.6-1.4c0.6,0.2,0.8,0.8,1.2,1.2
	C196.3,67.6,195.8,68.1,195.8,68.7L195.8,68.7z"/>
<path d="M238.9,66.2c0,0.1,0.2,0.2,0.2,0.4c-1.4,1.2-3.3,1.6-5.3,1.7c-0.2,0-0.3,0.2-0.5,0.1c-0.1-0.1-0.2-0.2-0.1-0.3
	C234.5,66.5,236.7,65.7,238.9,66.2L238.9,66.2z"/>
<path d="M232.5,66.8c0.2,0.6-0.2,0.9-0.6,1.1c-0.4,0-0.7-0.3-0.9-0.6c-0.1-0.3,0.2-0.5,0.3-0.7C231.6,66.3,232.3,66.3,232.5,66.8
	L232.5,66.8z"/>
<path d="M157.1,66.9c0.1,0.3,0,0.6-0.2,0.8c-0.2,0.2-0.5,0.2-0.7,0.2c-0.3,0-0.4-0.4-0.5-0.6c0-0.4,0.2-0.6,0.5-0.8
	C156.5,66.6,156.8,66.6,157.1,66.9L157.1,66.9z"/>
<path d="M150,69.5v0.3c-1,0.2-1.9,0-2.6-0.6c-0.6-0.8-1.2-1.6-2.1-2c0-0.1-0.2-0.3,0-0.4C147.3,66.8,148.5,68.4,150,69.5L150,69.5z"
	/>
<path d="M244.9,66.9c-0.9,1.4-1.7,3-3.3,3.6c-0.3,0-0.5,0.4-0.8,0.1c0.6-1.5,2-3.2,3.5-3.8C244.5,66.8,244.7,66.8,244.9,66.9
	L244.9,66.9z"/>
<path d="M159.4,67.4c0,0.4-0.3,0.5-0.6,0.8c-0.3,0-0.5-0.2-0.7-0.4c-0.2-0.4,0.2-0.6,0.4-0.8C158.9,66.8,159.2,67.1,159.4,67.4
	L159.4,67.4z"/>
<path d="M249.9,67.6c-0.4,0.5-0.2,1.3-0.6,1.8c-0.8,0.9-1.5,2-2.7,2.2c-0.2-0.4,0.3-0.8,0.5-1.2c0.6-1.2,1.3-2.6,2.6-3.1L249.9,67.6
	L249.9,67.6z"/>
<path d="M137.7,68c0.1,0.3,0.2,0.6,0,0.9c-0.2,0.2-0.6,0.3-0.9,0.2c-0.4-0.2-0.5-0.6-0.3-1C136.7,67.7,137.4,67.5,137.7,68L137.7,68
	z"/>
<path d="M135.4,68.4c0,0.2,0.2,0.4,0.1,0.6c-0.1,0.2-0.3,0.4-0.6,0.5c-0.4,0.1-0.7-0.2-0.9-0.5c0-0.4,0.1-0.7,0.4-0.8
	C134.8,68,135.2,68.2,135.4,68.4L135.4,68.4z"/>
<path d="M140.1,68.7c0.1,0.3,0.2,0.9-0.3,1c-0.6,0.2-0.9-0.2-1.2-0.5c0-0.4,0.2-0.6,0.5-0.8C139.5,68.3,139.8,68.4,140.1,68.7
	L140.1,68.7z"/>
<path d="M146.6,69.2c0,0.3,0,0.7-0.3,0.8c-0.2,0.2-0.6,0.1-0.8,0.1c-0.1-0.2-0.5-0.4-0.3-0.7c0.2-0.2,0.3-0.3,0.6-0.4
	C146.1,69,146.4,68.9,146.6,69.2L146.6,69.2z"/>
<path d="M253.7,69.5c-0.1,0.3-0.3,0.6-0.6,0.6c-0.4,0-0.7-0.1-0.9-0.4c-0.2-0.4,0.2-0.7,0.5-0.8C253.1,68.9,253.6,69,253.7,69.5
	L253.7,69.5z"/>
<path d="M246.4,69.7c0,0.3-0.3,0.6-0.5,0.7c-0.6,0.2-1-0.2-1.2-0.6c0.1-0.4,0.4-0.6,0.7-0.7C245.9,69,246.2,69.3,246.4,69.7
	L246.4,69.7z"/>
<path d="M251.4,69.6c0,0.3-0.2,0.6-0.4,0.7c-0.3,0.1-0.7,0.1-1-0.2c-0.4-0.3-0.1-0.6,0.2-0.8C250.6,69.1,251.2,69.1,251.4,69.6
	L251.4,69.6z"/>
<path d="M136.6,70.3c0.1,0.4-0.1,0.8-0.5,1c-0.4,0-0.8-0.2-0.9-0.6c0-0.4,0.1-0.7,0.4-0.8C136.1,69.8,136.4,70,136.6,70.3
	L136.6,70.3z"/>
<path d="M244.5,70.7c0.1,0.4-0.1,0.8-0.6,1c-0.3,0.1-0.5-0.1-0.8-0.3c-0.2-0.2-0.4-0.6,0-0.8C243.4,70,244.2,70.3,244.5,70.7
	L244.5,70.7z"/>
<path d="M158,71.2c0.2,0.4-0.3,0.5-0.4,0.8c-0.2,0.1-0.5,0.1-0.6,0c-0.2-0.2-0.4-0.5-0.3-0.8c0.2-0.2,0.3-0.3,0.5-0.4
	C157.6,70.5,157.7,70.9,158,71.2L158,71.2z"/>
<path d="M253,71.4c0.1,0.3-0.2,0.4-0.2,0.6c-0.2,0.2-0.6,0.2-0.9,0.2c-0.4-0.2-0.4-0.5-0.4-0.9c0.2-0.2,0.3-0.4,0.6-0.4
	C252.4,70.9,252.9,71,253,71.4L253,71.4z"/>
<path d="M250.5,71.6c0.2,0.5-0.3,0.7-0.6,0.8c-0.2,0-0.4-0.1-0.4,0.2c1,0.5,1.7,1.4,2.5,2.1V75c-1.4,0-2.9-0.4-3.9-1.5
	c-0.3-0.2-0.8-0.2-1.1-0.5c0.5-0.5,1.5-0.3,2.2-0.4c0.5-0.6-0.6-1,0.1-1.4c0.2,0,0.4-0.3,0.7-0.2C250.2,71.1,250.4,71.3,250.5,71.6
	L250.5,71.6z"/>
<path d="M234.3,71.6c0.1,0.2-0.2,0.4-0.2,0.6c-0.2,0.2-0.6,0.3-0.9,0.2c-0.2-0.3-0.5-0.5-0.4-0.9C233.2,70.9,234.2,71,234.3,71.6
	L234.3,71.6z"/>
<path d="M145.6,73c-0.1,0.4-0.3,0.6-0.7,0.6c-0.3,0-0.6-0.2-0.7-0.5c0-0.3,0.2-0.4,0.2-0.6C144.9,72.2,145.6,72.4,145.6,73L145.6,73
	z"/>
<path d="M148.8,72.5c0,0.6-0.6,0.9-0.8,1.4c-0.6,1.3-1.7,2.5-3.2,2.6c-0.2-0.4,0.5-0.8,0.7-1.2c0.6-1.4,1.9-2.1,3.1-2.9H148.8
	L148.8,72.5z"/>
<path d="M233.3,73c0,0.4-0.4,0.8-0.7,0.9c-0.4,0.1-0.6-0.2-0.8-0.3c-0.3-0.3-0.1-0.6,0-1C232.4,72.2,233,72.6,233.3,73L233.3,73z"/>
<path d="M235.8,73.3c0,0.4-0.3,0.8-0.7,0.9c-0.1-0.1-0.3,0-0.4-0.1c-0.3-0.2-0.5-0.4-0.5-0.7c0.2-0.2,0.3-0.5,0.6-0.6
	C235.1,72.8,235.7,72.8,235.8,73.3L235.8,73.3z"/>
<path d="M155,73.3c0,0.4-0.3,0.7-0.6,0.8c-0.4,0-0.6-0.2-0.8-0.5c-0.1-0.4,0.3-0.6,0.5-0.8C154.6,72.7,154.7,73,155,73.3L155,73.3z"
	/>
<path d="M157.7,73.4c-0.1,0.4-0.4,0.6-0.8,0.7c-0.3-0.1-0.6-0.2-0.7-0.5c0-0.4,0.3-0.6,0.6-0.8C157.2,72.8,157.6,73,157.7,73.4
	L157.7,73.4z"/>
<path d="M244.3,76.2c0.2,0.2,0.6,0.4,0.5,0.6c-0.6,0.3-1.1-0.4-1.7-0.6c-1-1-1.7-2-2.1-3.2c0.4-0.4,0.8,0.1,1.1,0.2
	C243,74.1,243.9,75.1,244.3,76.2L244.3,76.2z"/>
<path d="M245.8,73.4c0.1,0.3,0.1,0.6-0.1,0.9c-0.2,0.4-0.8,0.3-1.1,0.2c-0.2-0.2-0.6-0.6-0.3-0.9c0.1-0.3,0.5-0.4,0.8-0.5
	C245.3,73.1,245.5,73.3,245.8,73.4L245.8,73.4z"/>
<path d="M161.4,74.5c0,0.3,0.1,0.8-0.3,1c-0.4,0.1-0.8,0-1-0.5c-0.2-0.5,0.2-0.6,0.5-0.8C160.9,74.1,161.1,74.3,161.4,74.5
	L161.4,74.5z"/>
<path d="M235.7,77.1c0.6,0.8,0.9,1.8,1,2.8c-0.1,0.3,0.2,0.6,0,0.8h-0.2c-1.8-1.3-2.2-3.1-2.9-4.9c-0.2-0.1-0.2-0.2-0.2-0.4
	c0.4-0.4,0.7,0.4,1.1,0.5L235.7,77.1L235.7,77.1z"/>
<path d="M166.5,75.7C166.5,75.7,166.5,75.8,166.5,75.7c-1.5,1.2-3.8,1.9-5.6,0.8c0-0.1,0-0.3,0.2-0.4c1.2-0.4,2.3-0.9,3.5-0.8
	L166.5,75.7L166.5,75.7z"/>
<path d="M157.5,75.9c-1.3,0.8-2.6,2.5-4.2,2.9c-0.3,0.1-0.5,0.6-0.9,0.3c0.7-2.2,3.1-3.3,5.2-3.5V75.9L157.5,75.9z"/>
<path d="M233.3,77.7c0.1,0.3,0,0.8-0.3,0.8c-0.2,0.2-0.6,0.2-0.8,0c-0.4-0.2-0.4-0.5-0.4-0.8c0.1-0.3,0.4-0.3,0.6-0.4
	C232.9,77.4,233.2,77.4,233.3,77.7L233.3,77.7z"/>
<path d="M230.1,77.9c-0.2,0.6-0.9,0.9-1.4,1c-1.3,0.5-2.6-0.2-3.8-0.5c0-0.3,0.4-0.2,0.6-0.4c1.3-0.3,2.7-0.6,4-0.2
	C229.7,77.8,229.9,77.7,230.1,77.9L230.1,77.9z"/>
<path d="M157.5,79.1c-0.1,0.2-0.2,0.5-0.5,0.6c-0.3,0.1-0.6,0-0.8-0.2c-0.1-0.2-0.4-0.4-0.2-0.7c0.1-0.3,0.4-0.4,0.6-0.4
	C157.1,78.4,157.4,78.7,157.5,79.1L157.5,79.1z"/>
<path d="M159.8,79.4c-0.1,0.2-0.2,0.6-0.6,0.8c-0.3,0.1-0.6-0.1-0.8-0.3c-0.1-0.2-0.2-0.5-0.1-0.8c0.1-0.2,0.4-0.2,0.6-0.4
	C159.3,78.7,159.7,79.1,159.8,79.4L159.8,79.4z"/>
<path d="M232.6,79.8c0,0.3-0.1,0.5-0.3,0.8c-0.2,0.3-0.6,0.3-0.9,0.2c-0.3,0-0.4-0.4-0.5-0.6c-0.2-0.3,0.2-0.5,0.3-0.8
	C231.7,79,232.4,79.2,232.6,79.8L232.6,79.8z"/>
<path d="M234.3,79.7c0,0.2,0.2,0.4,0.1,0.6c-0.2,0.2-0.4,0.7-0.9,0.5c-0.2,0.1-0.4-0.2-0.5-0.3c-0.2-0.4,0-1,0.5-1.1
	C233.9,79.3,234.1,79.6,234.3,79.7L234.3,79.7z"/>
<path d="M158.4,80.9c0.1,0.4-0.1,0.8-0.4,1.1c-0.4,0.1-1,0.1-1.1-0.4c0-0.4,0-0.9,0.5-1.2C157.7,80.3,158.2,80.4,158.4,80.9
	L158.4,80.9z"/>
<path d="M160.6,80.7c-0.1,1.1-0.3,2.5-1.4,3.1c-0.6,0.1-1.3,0.7-1.9,0.3V84C158.1,82.8,159.7,81.9,160.6,80.7L160.6,80.7z"/>
<path d="M226.4,81.7c0.2,0.2-0.1,0.4-0.2,0.6c-0.2,0.3-0.7,0.2-1,0c-0.3-0.1-0.3-0.5-0.2-0.8c0.1-0.2,0.3-0.4,0.5-0.4
	C225.9,81.1,226.2,81.4,226.4,81.7L226.4,81.7z"/>
<path d="M164.6,83.5c0.6,0.9,0.2,2.2,0.6,3.2c-0.7,0.1-1-0.7-1.4-1.1c-0.9-1.2-0.8-2.8-1.2-4.2c0.1-0.1,0.2-0.1,0.3-0.1
	c0.6,0.4,1,1.2,1.5,1.7C164.3,83.3,164.6,83.3,164.6,83.5L164.6,83.5z"/>
<path d="M228.4,82c0,0.3-0.4,0.4-0.6,0.6c-0.3,0-0.5-0.2-0.8-0.4c-0.1-0.4,0.2-0.5,0.4-0.7C227.8,81.3,228.2,81.5,228.4,82L228.4,82
	z"/>
<path d="M233.1,85.5c0,0.1,0,0.4-0.2,0.3h-0.2c-1.2-1-2.3-2.2-2.1-3.8l0.2,0C231.8,82.9,233,83.9,233.1,85.5L233.1,85.5z"/>
<path d="M230.1,84.3c0,0.3-0.2,0.6-0.4,0.8c-0.4,0.1-1.1,0.1-1.2-0.5c0-0.4,0.4-0.6,0.6-0.8C229.6,83.6,229.9,83.9,230.1,84.3
	L230.1,84.3z"/>
<path d="M227.5,85.1c-0.6,1.5-2.1,2.2-3.1,3.4c-0.2-0.1-0.1-0.4-0.1-0.6c0.4-1.5,1.6-3,3.1-3.6C228,84.3,227.4,84.8,227.5,85.1
	L227.5,85.1z"/>
<path d="M230.5,86.3c0,0.4-0.4,0.5-0.6,0.7c-0.3,0-0.6-0.1-0.9-0.4c0-0.4,0.3-0.5,0.5-0.7C229.9,85.8,230.3,86,230.5,86.3
	L230.5,86.3z"/>
<path d="M200.9,13.8c0.5,0,1,0.4,1,1c0,0.5-0.4,1-1,1h-11.8c-0.5,0-1-0.4-1-1c0-0.5,0.4-1,1-1H200.9L200.9,13.8z M192.6,15.5
	c1.1,0,0.1-1.4-0.6-1.4h-1.1c-1.1,0-0.1,1.4,0.6,1.4H192.6L192.6,15.5z M197.4,15.5c1.2,0,0.1-1.4-0.6-1.4h-1.1
	c-1.1,0-0.1,1.4,0.6,1.4H197.4L197.4,15.5z M201,14.1h-0.4c-1.2,0-0.2,1.4,0.4,1.4C201.8,15.5,201.8,14.1,201,14.1L201,14.1z"/>
<path d="M199.9,27.3l2.2,0.9l2.2-0.9l-0.9,3.3l1.8-0.4l-0.6,2l0.6,1.9l-1.6-0.4l0.7,3.6l-2.2-0.9l-2.2,0.9l0.9-3.6l-1.8,0.5l0.5-2
	l-0.5-1.9l1.7,0.3L199.9,27.3L199.9,27.3z M203.2,33.2c0.5,0,0.6-0.7,0.6-1.3c0-1.4-1.1,0-1.6-1.3c-0.4,1.1-1.5,0.1-1.5,1.2
	c0,0.8,0,1.3,0.8,1.3H203.2L203.2,33.2z M201,32c0,0.5,0.7,0.2,1.2,0.2c0.5,0,1.2,0.3,1.2-0.2c0-0.7-0.7-0.5-1.2-0.5
	C201.7,31.5,201,31.3,201,32L201,32z"/>
<polygon points="194.6,32.1 194.6,31.7 194.3,31.6 194.6,31.3 194.4,31 194.8,31 195,30.6 195.2,31 195.6,31 195.4,31.3 195.7,31.6 
	195.4,31.7 195.4,32.1 195,31.9 194.6,32.1 "/>
<polygon points="192.9,34.4 192.9,34 192.5,33.9 192.8,33.6 192.6,33.2 193,33.3 193.3,32.9 193.5,33.3 193.9,33.2 193.7,33.6 
	194,33.9 193.6,34 193.6,34.4 193.3,34.1 192.9,34.4 "/>
<polygon points="195.9,34.1 195.9,33.7 195.5,33.6 195.8,33.3 195.6,33 196,33 196.2,32.6 196.4,33 196.8,33 196.7,33.3 197,33.6 
	196.6,33.7 196.6,34.1 196.2,33.8 195.9,34.1 "/>
<polygon points="196.2,35.8 196.2,35.5 196,35.5 196.2,35.3 196.1,35.1 196.3,35.1 196.4,34.9 196.5,35.1 196.8,35.1 196.7,35.3 
	196.8,35.5 196.6,35.5 196.6,35.8 196.4,35.6 196.2,35.8 "/>
<polygon points="193.5,37.7 193.5,37 192.8,36.8 193.3,36.3 193,35.7 193.7,35.8 194.1,35.1 194.5,35.8 195.1,35.7 194.8,36.3 
	195.3,36.8 194.7,37 194.7,37.7 194.1,37.2 193.5,37.7 "/>
<polygon points="194.9,0 196.3,3.4 199.8,2.4 198,5.6 201,7.8 197.4,8.4 197.6,12.1 194.9,9.6 192.1,12.1 192.3,8.4 188.7,7.8 
	191.7,5.6 189.9,2.4 193.5,3.4 194.9,0 "/>
<path d="M182.1,77c-0.4,0.2-0.6,0.3-0.5,0.7l0.5,2.1c0.1,0.4,0.1,1-0.1,1.4c-0.3,0.5-1,0.7-1.4,0.9c-0.3,0.1-1.1,0.2-1.7,0
	c-0.4-0.2-0.7-0.4-0.8-1.1l-0.5-2.2c-0.1-0.6-0.3-0.5-0.8-0.5l0-0.2l2.7-0.6l0,0.2c-0.5,0.1-0.8,0.2-0.6,0.8l0.5,2.2
	c0.1,0.4,0.3,1.3,1.4,1c1.4-0.3,1.2-1.3,1.1-1.8l-0.5-2c-0.1-0.4-0.2-0.6-0.9-0.5l0-0.2l1.7-0.4L182.1,77L182.1,77z"/>
<path d="M186,77.5c-0.2-0.4-0.9-1.1-1.8-0.9c-0.4,0.1-0.8,0.4-0.7,0.8c0.1,0.4,0.3,0.5,1,0.6l1.3,0.2c0.3,0.1,1,0.3,1.1,1
	c0.1,0.6-0.2,1.5-1.7,1.8c-0.7,0.2-1.2,0-1.4,0.1c-0.2,0-0.2,0.2-0.2,0.3l-0.2,0.1l-0.4-1.6l0.2-0.1c0.3,0.6,0.9,1.3,1.9,1.1
	c0.9-0.2,0.8-0.9,0.8-1c-0.1-0.4-0.5-0.5-1.1-0.6l-0.6-0.1c-1.5-0.2-1.6-0.8-1.7-1.1c-0.1-0.4,0-1.4,1.5-1.7c0.6-0.1,1.1,0,1.3-0.1
	c0.2,0,0.2-0.1,0.2-0.3l0.2-0.1l0.3,1.4L186,77.5L186,77.5z"/>
<path d="M191.2,80.1l-2.9,0.3l0-0.2c0.6-0.1,0.8-0.1,0.7-0.7l-0.3-3.6c-0.6,0.1-1.4,0.2-1.4,1.3l-0.2,0l-0.1-1.4l4.8-0.5l0.1,1.4
	l-0.2,0c-0.3-1.1-1.1-1-1.7-1l0.3,3.6c0.1,0.6,0.2,0.6,0.8,0.5L191.2,80.1L191.2,80.1z"/>
<path d="M198,80.1l-1.7,0l-1.6-2.2l-0.2,0l0,1.3c0,0.5,0.2,0.6,0.7,0.6l0,0.2l-2.7-0.1l0-0.2c0.6,0,0.7-0.1,0.7-0.6l0.1-3
	c0-0.6-0.2-0.6-0.7-0.6l0-0.2l2.6,0.1c0.6,0,2.3,0.1,2.3,1.2c0,0.8-0.9,1-1.3,1.1l1.6,2c0.1,0.1,0.2,0.1,0.3,0.1L198,80.1L198,80.1z
	 M194.5,77.7c1.1,0,1.5-0.1,1.5-1c0-0.7-0.3-1-1-1c-0.4,0-0.5,0.1-0.5,0.3L194.5,77.7L194.5,77.7z"/>
<path d="M203.3,80.8l-2.6-0.3l0-0.2c0.5,0,0.6,0,0.7-0.2c0-0.2-0.2-0.7-0.3-0.9l-1.8-0.2c-0.3,0.5-0.4,0.7-0.5,0.8
	c0,0.3,0.4,0.3,0.6,0.4l0,0.2l-1.6-0.2l0-0.2c0.4,0,0.6-0.2,0.9-0.7l2.2-3.5l0.2,0l1.3,3.8c0.3,0.8,0.4,1,0.8,1L203.3,80.8
	L203.3,80.8z M201,78.9l-0.6-1.7l-1,1.5L201,78.9L201,78.9z"/>
<path d="M208,81.7l-4.6-0.8l0-0.2c0.5,0,0.7,0.1,0.8-0.3l0.6-3.2c0.1-0.4-0.2-0.5-0.6-0.6l0-0.2l2.8,0.5l0,0.2
	c-0.6-0.1-0.8-0.1-0.9,0.5l-0.6,3.2c-0.1,0.3,0.1,0.4,0.6,0.5c1.2,0.2,1.8-0.3,2.3-0.9l0.2,0L208,81.7L208,81.7z"/>
<path d="M211,82.4l-2.8-0.6l0-0.2c0.4,0.1,0.7,0.1,0.8-0.3l0.7-3.2c0.1-0.4-0.3-0.5-0.6-0.6l0-0.2l2.8,0.6l0,0.2
	c-0.4-0.1-0.8-0.1-0.8,0.3l-0.7,3.2c-0.1,0.4,0.2,0.5,0.7,0.6L211,82.4L211,82.4z"/>
<path d="M216.7,83.1l-2.6-0.3l0-0.2c0.5,0,0.7,0,0.7-0.2c0-0.2-0.2-0.7-0.3-0.9l-1.8-0.2c-0.3,0.5-0.4,0.7-0.4,0.8
	c0,0.3,0.4,0.3,0.6,0.4l0,0.2l-1.6-0.2l0-0.2c0.4,0,0.6-0.2,0.9-0.7l2.2-3.5l0.2,0l1.4,3.7c0.3,0.8,0.4,1,0.8,1L216.7,83.1
	L216.7,83.1z M214.4,81.3l-0.6-1.7l-0.9,1.6L214.4,81.3L214.4,81.3z"/>
<path d="M196,28.4c0-1.6-0.9-0.1-1.4-1.5c-0.4,1.2-1.5,0.2-1.5,1.4c0,0.5,0.1,0.8,0.4,0.9v0.5c0,0.1,0.1,0.2,0.2,0.2h1.7
	c0.1,0,0.2-0.1,0.2-0.2v-0.5C195.8,29,196,28.7,196,28.4L196,28.4z M194.6,28.7c-0.5,0-1.1,0.3-1.1-0.2c0-0.8,0.5-0.6,1-0.6
	c0.5,0,1.2-0.2,1.2,0.6C195.7,29,195,28.7,194.6,28.7L194.6,28.7z"/>
<path d="M210.2,48.4c0.4,0,0.7-0.3,0.7-0.7c0-0.4-0.3-0.7-0.7-0.7c-0.4,0-0.7,0.3-0.7,0.7C209.4,48.1,209.8,48.4,210.2,48.4
	L210.2,48.4z"/>
<path d="M206.7,24.2c0,0-0.4,0.6-0.4,0.7c0,0.2,0.2,0.4,0.4,0.4c0.2,0,0.4-0.2,0.4-0.4C207,24.9,206.7,24.2,206.7,24.2L206.7,24.2z"
	/>
<path d="M182.7,24.2c0,0-0.4,0.6-0.4,0.7c0,0.2,0.2,0.4,0.4,0.4c0.2,0,0.4-0.2,0.4-0.4C183.1,24.9,182.7,24.2,182.7,24.2L182.7,24.2
	z"/>
<path d="M188.7,24.2c0,0-0.4,0.6-0.4,0.7c0,0.2,0.2,0.4,0.4,0.4c0.2,0,0.4-0.2,0.4-0.4C189,24.9,188.7,24.2,188.7,24.2L188.7,24.2z"
	/>
<path d="M194.7,24.2c0,0-0.4,0.6-0.4,0.7c0,0.2,0.2,0.4,0.4,0.4c0.2,0,0.4-0.2,0.4-0.4C195,24.9,194.7,24.2,194.7,24.2L194.7,24.2z"
	/>
<path d="M200.7,24.2c0,0-0.3,0.6-0.3,0.7c0,0.2,0.2,0.4,0.4,0.4c0.2,0,0.4-0.2,0.4-0.4C201,24.9,200.7,24.2,200.7,24.2L200.7,24.2z"
	/>
<path d="M182.7,32.4c0,0,0.3,0.6,0.3,0.7c0,0.2-0.2,0.4-0.4,0.4c-0.2,0-0.4-0.2-0.4-0.4C182.3,33.1,182.7,32.4,182.7,32.4
	L182.7,32.4z"/>
<path d="M182.7,40.4c0,0,0.3,0.6,0.3,0.7c0,0.2-0.2,0.4-0.4,0.4c-0.2,0-0.4-0.2-0.4-0.4C182.3,41.1,182.7,40.4,182.7,40.4
	L182.7,40.4z"/>
<path d="M183.7,46.8c0,0,0.4,0.6,0.4,0.7c0,0.2-0.2,0.4-0.4,0.4c-0.2,0-0.4-0.2-0.4-0.4C183.3,47.4,183.7,46.8,183.7,46.8
	L183.7,46.8z"/>
<path d="M188.7,50.1c0,0,0.4,0.6,0.4,0.7c0,0.2-0.2,0.4-0.4,0.4c-0.2,0-0.4-0.2-0.4-0.4C188.3,50.8,188.7,50.1,188.7,50.1
	L188.7,50.1z"/>
<path d="M207,32.4c0,0-0.3,0.6-0.3,0.7c0,0.2,0.2,0.4,0.4,0.4c0.2,0,0.4-0.2,0.4-0.4C207.3,33.1,207,32.4,207,32.4L207,32.4z"/>
<path d="M207,40.4c0,0-0.3,0.6-0.3,0.7c0,0.2,0.2,0.4,0.4,0.4c0.2,0,0.4-0.2,0.4-0.4C207.3,41.1,207,40.4,207,40.4L207,40.4z"/>
<path d="M206,46.8c0,0-0.3,0.6-0.3,0.7c0,0.2,0.2,0.4,0.4,0.4c0.2,0,0.4-0.2,0.4-0.4C206.4,47.4,206,46.8,206,46.8L206,46.8z"/>
<path d="M201,50.1c0,0-0.3,0.6-0.3,0.7c0,0.2,0.2,0.4,0.4,0.4c0.2,0,0.4-0.2,0.4-0.4C201.3,50.8,201,50.1,201,50.1L201,50.1z"/>
<path d="M194.9,53.7c0,0-0.4,0.6-0.4,0.7c0,0.2,0.2,0.4,0.4,0.4c0.2,0,0.4-0.2,0.4-0.4C195.2,54.4,194.9,53.7,194.9,53.7L194.9,53.7
	z"/>
<path d="M204.6,41.8c0.1,0.1,0.3,0.2,0.5,0.1l0.2-0.6c0,0-0.3-0.3-0.4-0.3c-0.6,0.2-1.3,0.2-1.7,0.8c0,0.4,0.3,0.8,0.6,1
	c0.2-0.1,0.3,0.2,0.4,0.3c0,0.2-0.1,0.3-0.3,0.3c-0.5-0.5-1.2,0.2-1.6-0.4c0.1-0.6,0.5-1.2,0-1.7c0-0.1,0.2-0.2,0.1-0.3
	c-0.2-0.5-0.8-0.1-1.1-0.1c-0.6-0.1-1,0.2-1.4,0.7c0,0.2,0.1,0.4,0.3,0.6c0.2,0,0.2,0,0.3,0.2l-0.4,0.2c0.1,0.1,0.1,0.3,0.2,0.4
	c-0.3,0.1-0.5-0.3-0.6-0.5c0-0.3,0-0.8-0.4-0.9c-0.1,0-0.3,0.1-0.3,0.1c-0.1,0.1-0.2,0.4-0.2,0.6c0,0.3,0.1,0.7,0.1,0.7
	s1.2,0.9,1.4,1.4c-0.3,0.7-0.3,1.6-1.1,2c-0.2,0.2-0.2,0.4-0.2,0.6l0.2,0.2c0.5-0.3,1.4-0.3,1.4-1.2c0.2-0.3,0.4-0.7,0.7-1
	c0.4-0.1,0.7,0.1,0.9,0.4c-0.1,0.6-0.5,0.9-1,1.1c-0.1,0.1,0,0.2,0,0.3c0.2,0.3,0.6,0.2,0.8,0.1c0.6-0.4,0.9-1.2,1.5-1.4
	c0.1,0.4-0.8,0.5-0.2,0.9c0.3-0.1,0.8,0,1-0.4c-0.3-0.6,0.9-0.9,0.2-1.5c0-0.6,0.6-0.8,0.6-1.4c-0.2-0.6-0.9-0.6-1.1-1.2
	C204,41.6,204.4,41.6,204.6,41.8L204.6,41.8z"/>
<path d="M177.1,48.7c0.4,0,0.7-0.3,0.7-0.7c0-0.4-0.3-0.7-0.7-0.7c-0.4,0-0.7,0.3-0.7,0.7C176.3,48.4,176.7,48.7,177.1,48.7
	L177.1,48.7z"/>
<path d="M138.2,71.4c0.4,0,0.7-0.3,0.7-0.7c0-0.4-0.3-0.7-0.7-0.7c-0.4,0-0.7,0.3-0.7,0.7C137.5,71,137.8,71.4,138.2,71.4
	L138.2,71.4z"/>
<path d="M163,76.9L163,76.9L163,76.9l-0.1-0.1v0C162.9,76.9,162.9,76.9,163,76.9L163,76.9h-0.2v0c0,0,0,0,0,0v-0.1c0,0,0,0,0,0v0
	h0.1C162.9,76.7,162.9,76.7,163,76.9C162.9,76.8,162.9,76.8,163,76.9L163,76.9C163,76.9,163,76.9,163,76.9L163,76.9L163,76.9z
	 M162.9,76.8C162.9,76.8,162.9,76.8,162.9,76.8C162.9,76.8,162.9,76.7,162.9,76.8C162.9,76.7,162.9,76.7,162.9,76.8L162.9,76.8
	L162.9,76.8z"/>
<path d="M163.1,76.8C163.1,76.8,163,76.7,163.1,76.8C163,76.7,163,76.7,163.1,76.8C163,76.8,163,76.8,163.1,76.8L163.1,76.8
	C163.1,76.8,163.1,76.8,163.1,76.8C163.1,76.9,163.1,76.9,163.1,76.8C163,76.9,163,76.9,163.1,76.8C163,76.9,163,76.9,163.1,76.8
	l-0.1,0.1v0L163.1,76.8C163,76.8,163,76.9,163.1,76.8C163,76.9,163.1,76.8,163.1,76.8C163.1,76.8,163,76.8,163.1,76.8L163.1,76.8
	C163,76.8,163,76.8,163.1,76.8C163,76.8,163,76.7,163.1,76.8C163,76.7,163.1,76.7,163.1,76.8C163.1,76.7,163.1,76.7,163.1,76.8
	L163.1,76.8L163.1,76.8L163.1,76.8L163.1,76.8z"/>
<path d="M163.3,76.7C163.3,76.7,163.3,76.7,163.3,76.7l-0.1,0.1h0l0-0.1h0l0,0.1h0l0-0.1c0,0,0,0,0,0v0h0.1v0c0,0,0,0,0,0
	c0,0,0,0,0,0l0,0.1h0l0-0.1l0,0c0,0,0,0,0,0v0L163.3,76.7L163.3,76.7C163.2,76.7,163.2,76.7,163.3,76.7
	C163.2,76.8,163.2,76.8,163.3,76.7L163.3,76.7L163.3,76.7L163.3,76.7C163.3,76.8,163.3,76.8,163.3,76.7
	C163.3,76.7,163.3,76.7,163.3,76.7L163.3,76.7L163.3,76.7L163.3,76.7L163.3,76.7z"/>
<path d="M163.3,76.9C163.3,76.9,163.4,76.9,163.3,76.9C163.4,76.8,163.4,76.8,163.3,76.9C163.4,76.8,163.4,76.8,163.3,76.9
	C163.3,76.8,163.3,76.8,163.3,76.9c0-0.1,0-0.1,0.1-0.1c0,0,0.1,0,0.1,0.1C163.4,76.8,163.4,76.9,163.3,76.9L163.3,76.9L163.3,76.9z
	 M163.4,76.8C163.4,76.8,163.4,76.8,163.4,76.8C163.4,76.8,163.4,76.8,163.4,76.8C163.4,76.8,163.4,76.7,163.4,76.8
	C163.4,76.7,163.4,76.8,163.4,76.8C163.4,76.8,163.4,76.8,163.4,76.8L163.4,76.8z"/>
<path d="M163.5,76.8C163.5,76.8,163.5,76.8,163.5,76.8C163.5,76.8,163.5,76.8,163.5,76.8C163.5,76.9,163.5,76.9,163.5,76.8
	C163.4,76.9,163.4,76.9,163.5,76.8C163.4,76.9,163.4,76.8,163.5,76.8C163.5,76.8,163.5,76.9,163.5,76.8
	C163.5,76.9,163.5,76.9,163.5,76.8C163.5,76.8,163.5,76.8,163.5,76.8C163.5,76.8,163.5,76.8,163.5,76.8L163.5,76.8L163.5,76.8
	L163.5,76.8L163.5,76.8L163.5,76.8L163.5,76.8z"/>
<path d="M208.6,23.3L208.6,23.3l-27.6,0v0h0l0,21.1c0,2.2,0.9,4,2.2,4.6l10.6,6.8c0.2,0.3,0.6,0.4,1,0.4c0.3,0,0.6-0.1,0.9-0.3
	l10.8-6.8c1.3-0.6,2.2-2.5,2.2-4.6L208.6,23.3L208.6,23.3L208.6,23.3z M207.9,44.7c-0.1,1.6-0.7,2.9-1.8,3.7L195.7,55h-0.1
	c-0.2,0.2-0.5,0.3-0.8,0.3c-0.3,0-0.6-0.1-0.8-0.3l-10.4-6.6c-1.1-0.8-1.6-2.1-1.8-3.7V24h26.1V44.7L207.9,44.7z"/>
<path d="M198.5,54.1l0.3-0.2C198.7,53.9,198.6,54,198.5,54.1L198.5,54.1z"/>
<path d="M177.7,82.9l-2.6,0.3l0-0.2c0.5-0.1,0.6-0.1,0.6-0.3c0-0.2-0.3-0.7-0.5-0.9l-1.8,0.2c-0.2,0.5-0.3,0.8-0.3,0.9
	c0,0.3,0.4,0.2,0.7,0.2l0,0.2l-1.6,0.2l0-0.2c0.4-0.1,0.5-0.3,0.7-0.9l1.4-3.9l0.2,0l2.2,3.3c0.4,0.7,0.6,0.9,1,0.8L177.7,82.9
	L177.7,82.9z M175.1,81.6l-1-1.5l-0.6,1.7L175.1,81.6L175.1,81.6z"/>
<path d="M223.5,73c-0.5-1.2-1.5-2.1-2.7-2.5c-1.3-0.3-2.6-0.1-3.5,0.9c-1.4,1.2-0.4,3.1-0.4,4.6c0,0.3,0,0.6-0.3,0.7
	c-5.8-0.5-11.1-2-16.8-2.6c-1.3-0.2-2.6-0.2-3.9-0.4l-1.6-0.2c-5,0.2-9.9,0.4-14.6,1.6c-1,0.3-2.1,0.4-3.1,0.8
	c-0.7-0.1-1.3,0.4-2,0.2l-1.3,0.3c-0.1,0-0.3,0-0.4,0c-0.6-1.6,1.3-2.6,0.7-4.2c-0.5-0.9-1.5-1.8-2.7-1.6c-1.3-0.2-2.5,0.6-3.2,1.6
	c-0.9,2,0.2,4.1,0.6,6c-0.1,0.6,0.6,1.4,0,1.9c-1.3-0.9-2.9-1.4-4.5-0.9c-0.5,0.2-1.3-0.1-1.6,0.5c1.7,0.9,3.9,0.8,5.8,0.7
	c0.2-0.1,0.4-0.1,0.6,0c0.2,1-0.2,2.4,0.4,3.4c0.7,1,1.9,1.2,3.1,1.3c3.7-0.1,6.9-1.2,10.2-2c0.5,0,0.9-0.3,1.5-0.3
	c1.8-0.4,3.7-0.7,5.6-0.8c-0.8,1.1-1.3,2.3-1.7,3.6c-0.5,1.1,0.8,1.2,1.2,1.8c-1.2,0.4-2.1,1.2-3.3,1.7c-2.5-0.1-4.7,0.9-7.1,1.2
	c0,0.5,0.8,0.4,0.9,0.9c-0.1,0.4-0.5,0.4-0.8,0.6c0,0.2,0,0.3,0.2,0.3c0.2-0.3,0.8-0.1,1-0.4c0.8,0,1.5-0.2,2.2-0.3
	c0.7-0.3,1.4-0.3,2-0.8c0.8-0.2,1.3-0.8,2.2-1c1.2,0,2.3-0.4,3.4-0.5v0.2c-0.9,1.5-1.9,3-2.8,4.4c-0.2,0.3,0,0.6,0.3,0.6
	c0.6,0.2,1.1,0,1.5-0.2c0.8-1.4,1.6-2.8,2.3-4.3c0.3-1.4,1.3-2.1,2.3-3c0.2-0.1,0.4-0.3,0.6-0.1c-0.8,0.9-1.3,1.8-1.9,2.8
	c-0.3,1.1-0.4,2.6,0.6,3.5c0.5,0.4,1.2,0.3,1.8,0.3c1.5-0.8,3.5,0.5,4.7-1c0.7-0.1,0.8,0.7,1.2,1.1c0.7,0.2,1.4,0.9,2.1,0.4
	c0-0.4-0.5-0.8-0.8-1.2c-0.5-0.8-1.1-1.5-1.5-2.3c-0.2-0.6-0.6-0.9-0.6-1.5c0.7,0.2,1.3,0.7,2.1,0.8c0.7,0.3,1.5,0.2,2.1,0.6
	c0.5,0.7,1.3,1.1,2,1.5c1,0.5,2.1,0.6,3.1,1c0.4,0,1,0.4,1.3,0c-0.2-0.2-0.4-0.3-0.6-0.4c-0.1-0.5,0.7-0.2,1-0.6
	c-0.1-0.2-0.3-0.3-0.5-0.3c-0.6-0.3-2-0.4-2.4-0.6c-0.5-0.1-0.9-0.3-1.4-0.4c-2.4,0-3.7-2.2-5.6-3c0.4-0.4,1.1-0.7,1.4-1.3
	c0.4-0.6,0.5-1.5,0.1-2.1c-0.4-1.2-1.9-1.1-2.9-1.8l0.1-0.1c1.5-0.1,2.9,0.3,4.3,0.6c3.8,0.5,7.3,2,11.3,2c2.2,0,4.9,0.1,6-2
	c0.2-1.2,0.4-2.5,0.6-3.7C222.4,77.1,223.7,75.2,223.5,73L223.5,73z M180.6,91.2l-0.6-0.5c0.3-0.4,0.9-0.2,1.3-0.4
	c1-0.3,2.2-0.7,3.4-0.5C183.6,90.8,182,90.9,180.6,91.2L180.6,91.2z M205.4,90.6c0.9,0.4,2.9,0.8,4.2,1c-0.1,0.5-1.1,0-1,0.8
	c-1.2-0.5-2.7-0.7-3.6-1.7C205.2,90.7,205.2,90.6,205.4,90.6L205.4,90.6z M168.2,73.6c0.1-0.7,0.3-1.5,1-2c1-0.5,2.3-0.4,3.1,0.1
	c0.3,0.2,0.5,0.4,0.6,0.8c0.2,0.7-0.1,1.4-0.6,1.8h-0.4c0-0.6,0-1.3,0.2-1.8c0-0.5-0.4-0.5-0.8-0.7c-0.7-0.2-1.3,0.1-1.8,0.4
	c-0.4,0.5-0.8,1.1-0.5,1.8c0.3,0.4,0,1,0.2,1.5l-0.1,0.2C168.7,75.1,168.1,74.5,168.2,73.6L168.2,73.6z M170,74.8
	c0.6,0.4,1.4,0.2,2.1,0.4c0.1,0.4,0.1,1-0.2,1.4c-0.7-0.2-1.5-0.1-1.9-0.7C170.2,75.5,170,75.1,170,74.8L170,74.8z M169.9,73.4
	c0.1-0.3,0-0.8,0.4-0.9c0.3-0.1,0.7-0.1,0.8,0.2c0,0.5-0.1,1-0.2,1.4C170.4,74.2,170.1,73.9,169.9,73.4L169.9,73.4z M188.5,86.3
	c-0.2-1.4,0.4-2.6,1.3-3.6c0.6-0.1,1.2-0.2,1.7,0.1c-1,0.3-2.3,0.5-2.6,1.8c0,0.5-0.1,0.8,0.1,1.2c0.4,0.8,1.4,0.4,2,1
	c0,0.2-0.2,0.4-0.4,0.5C190,86.9,189.2,86.8,188.5,86.3L188.5,86.3z M187.1,89c1-0.4,1.9-1.2,3-0.9C189.4,88.7,188.1,89,187.1,89
	L187.1,89z M190.9,89.4c-0.6,1.3-1.2,2.5-1.9,3.8c-0.1,0.2-0.4,0.2-0.6,0.3c0-0.6,0.6-1,0.8-1.5c0.8-1.1,1.1-2.2,2-3.3
	C191.3,88.9,190.9,89.1,190.9,89.4L190.9,89.4z M191.9,87.1v0.2h-0.1L191.9,87.1L191.9,87.1L191.9,87.1
	C191.9,87.1,191.8,87.1,191.9,87.1L191.9,87.1L191.9,87.1z M191.5,86c-0.7-0.1-1.3-0.3-1.9-0.5c-0.4-0.4,0-0.8,0-1.3
	c0.6-0.9,2.1-1.3,2.9-0.5C192.4,84.6,192.1,85.4,191.5,86L191.5,86z M192.4,86c0.1-0.5,0.4-1.2,0.6-1.7
	C193,84.9,192.7,85.6,192.4,86L192.4,86z M192.8,82.8c-0.5-0.1-0.8-0.7-1.3-0.7c0.5-0.2,1-0.1,1.5,0
	C193.2,82.3,192.9,82.5,192.8,82.8L192.8,82.8z M193.3,84L193.3,84l0-0.4h0V84L193.3,84z M193.3,85.8c0-0.2,0.1-0.4,0.1-0.6
	c0.2-0.2,0.4,0.2,0.5,0.3C193.8,85.7,193.6,85.9,193.3,85.8L193.3,85.8z M193.9,83.3c0.2-0.6,0.2-1,0.6-1.5c0.4,0,0.8,0,1.1,0.2
	c0.1,0.8,1.1,1.9,0,2.6c-0.4,0.2-0.9,0.5-1.3,0.2C193.8,84.3,193.7,83.9,193.9,83.3L193.9,83.3z M196.8,82.2
	c-0.1-0.4,0.4-0.1,0.5-0.2l1.2,0.1C197.9,82,197.1,83.5,196.8,82.2L196.8,82.2z M198.8,82.7c-0.5,0.2-0.8,0.7-1.3,0.8
	C197.7,83.1,198.3,82.7,198.8,82.7L198.8,82.7z M197.1,85.2v0.1h0L197.1,85.2L197.1,85.2L197.1,85.2z M197.2,87.7
	c0,0.1,0,0.2-0.1,0.3l-0.9-0.7C196.7,87.1,197,87.3,197.2,87.7L197.2,87.7z M196.1,86.4c0.1-0.1,0.3-0.1,0.4,0H196.1L196.1,86.4z
	 M195.6,85.8c0.2-0.2,0.4-0.6,0.6-0.6c0,0,0,0.1,0.1,0.1C196.1,85.5,195.9,85.7,195.6,85.8L195.6,85.8z M194.7,85.7h-0.2l0.2-0.2
	C194.9,85.6,194.7,85.7,194.7,85.7L194.7,85.7z M194.8,87.3c0.5-0.6,1,0.3,1.2,0.8c0.6,0.9,2.1,1.7,1.5,2.9c-0.8,0.7-1.9,0-2.8,0.6
	c-0.4,0-1.2,0.1-1.4-0.4C193.8,89.8,194.2,88.4,194.8,87.3L194.8,87.3z M193.7,88l0.2-0.3c-0.3,1-0.8,2-1.3,2.9
	C192.3,89.6,193.3,88.9,193.7,88L193.7,88z M195.4,92.8c-0.8,0-1.9,0.5-2.6-0.2c0-0.3-0.3-0.5-0.3-0.8c0.6-0.2,1.2,0.5,1.8,0
	c0.9,0,1.9-0.1,2.8,0.1c0.4,0.1,1.1-0.7,1.2,0.1C198,93.3,196.4,92.4,195.4,92.8L195.4,92.8z M197.7,87v-0.1h0.1L197.7,87L197.7,87
	L197.7,87z M198,89.5c0,0.4,0.4,0.6,0.2,0.9C198.1,90.3,197.8,89.9,198,89.5L198,89.5z M199.1,91.9l-0.2,0.1
	c-0.2-0.2-0.1-0.6-0.1-0.8C199,91.4,199.2,91.6,199.1,91.9L199.1,91.9z M201.1,92.9c0,0.1-0.2,0.1-0.3,0c-1.2-1.5-1.7-3.1-2.5-4.8
	l0.2,0C199.4,89.7,200.1,91.4,201.1,92.9L201.1,92.9z M202.5,89.2c-0.1,0-0.1,0.1-0.1,0.2c-1.2,0-1.9-0.6-2.8-1.2l0-0.2
	C200.7,88,201.6,88.7,202.5,89.2L202.5,89.2z M201.5,83.9c0.5,0.1,0.5,0.6,0.6,1c0,0.9-0.5,1.6-1.3,2c-0.4,0.2-1.1,0.3-1.5,0.2
	c1,0,2-0.4,2.4-1.4L201.5,83.9L201.5,83.9z M200.6,83.7c0.2,0.6,0.6,1.1,0.4,1.8c-0.4,0.8-1.2,0.8-1.9,0.9c-0.4,0-0.6-0.1-0.9-0.3
	c0-0.2,0-0.3-0.2-0.4c0.1-0.5-0.9-1-0.2-1.5C198.4,83.7,200,82.3,200.6,83.7L200.6,83.7z M220.8,80.8c-0.3,0.4,0,1-0.4,1.4
	c0,0.7-0.6,1.1-1.1,1.4c-4.7,1-9.4-0.6-13.9-1.4c-6.4-1.4-13.8-1.8-20.3-0.3c-3.1,0.6-6,1.3-9,2.1c-1.8,0.2-3.8,0.5-5.6,0
	c-1.4-0.7-0.8-2.5-1.3-3.8c0.1-1-0.3-1.8-0.3-2.8c-0.1-0.3-0.2-0.7-0.2-1c0.6,0.1,1.2,0.5,1.8,0.7c3.3,0.6,6.3-0.4,9.4-1
	c3-0.6,6-1.2,9.2-1.4c3.6,0,7.2-0.2,10.6,0.4c1.1,0,2.1,0.3,3.1,0.4c2.2,0.3,4.3,0.9,6.5,1c0.4,0.1,0.8,0.1,1.2,0.2
	c3.6,0.6,7.6,1.6,11,0C221.6,78.1,221,79.4,220.8,80.8L220.8,80.8z M219.7,75.9c0,0.6-0.6,0.5-0.9,0.7h-1c-0.2-0.3-0.1-0.8-0.1-1.1
	C218.4,75.7,219.1,75.7,219.7,75.9L219.7,75.9z M219.2,74.9c0.4-0.4-0.1-3,1.1-1.3c0,0.3,0,0.8-0.3,1
	C219.9,74.8,219.5,75.1,219.2,74.9L219.2,74.9z M222.4,74.5c-0.4,0.7-0.9,1.2-1.7,1.4c0-1,0.9-1.6,0.6-2.7c-0.5-0.8-1.5-1-2.5-0.8
	c-0.4,0.2-0.2,0.6-0.3,1l-0.2,1.3c-0.8,0-0.8-0.7-1.1-1.3c0-0.8,0.4-1.7,1.2-2.1c0.6-0.3,1.7-0.3,2.3,0.1c0.5,0.1,1.1,0.4,1.3,0.8
	C222.7,72.8,222.6,73.8,222.4,74.5L222.4,74.5z"/>
</svg>
