<?xml version="1.0" encoding="utf-8"?>
<!-- Generator: Adobe Illustrator 18.1.1, SVG Export Plug-In . SVG Version: 6.00 Build 0)  -->
<svg version="1.1" id="Layer_1" xmlns="http://www.w3.org/2000/svg" xmlns:xlink="http://www.w3.org/1999/xlink" x="0px" y="0px"
	 viewBox="0 0 282.2 102.7" enable-background="new 0 0 282.2 102.7" xml:space="preserve">
<path d="M31.7,51.6L7.8,15.3v36.3H0V0h7.2L31,36.2V0h7.8v51.6H31.7z"/>
<path d="M67.6,52c-5.4,0-10-2-13.6-5.5c-5.1-5.1-5-10.8-5-20.7c0-9.9-0.1-15.7,5-20.7c3.6-3.6,8.2-5.5,13.6-5.5
	C77-0.4,84.2,5.1,86,15.4h-8c-1.2-5.2-4.7-8.8-10.4-8.8c-3,0-5.8,1.2-7.6,3.1c-2.5,2.8-3.1,5.7-3.1,16.1c0,10.4,0.6,13.3,3.1,16.1
	c1.8,2,4.6,3.1,7.6,3.1c5.7,0,9.3-3.6,10.5-8.8H86C84.2,46.5,76.9,52,67.6,52z"/>
<path d="M123.4,51.6l-10.9-21.7h-9.8v21.7h-7.8V0h20c9.8,0,16,6.3,16,15.1c0,7.4-4.5,12.1-10.3,13.7l11.9,22.8H123.4z M114.4,7
	h-11.6v16.2h11.6c5.2,0,8.8-3,8.8-8C123.1,10.1,119.6,7,114.4,7z"/>
<path d="M141,51.6V0h7.8v51.6H141z"/>
<path d="M174.5,52c-7.8,0-13.3-1.8-18.3-6.8l5.2-5.1c3.8,3.8,7.9,4.9,13.2,4.9c6.7,0,10.7-2.9,10.7-7.9c0-2.2-0.7-4.1-2-5.4
	c-1.3-1.2-2.6-1.7-5.7-2.2l-6.1-0.9c-4.2-0.6-7.5-2-9.8-4.1c-2.5-2.4-3.8-5.7-3.8-9.9c0-9,6.5-15.1,17.2-15.1c6.8,0,11.6,1.7,16,5.9
	l-5,4.9c-3.2-3-6.9-4-11.2-4c-6.1,0-9.4,3.5-9.4,8c0,1.9,0.6,3.6,2,4.8c1.3,1.2,3.4,2,5.8,2.4l5.9,0.9c4.8,0.7,7.5,1.9,9.6,3.8
	c2.8,2.5,4.2,6.2,4.2,10.6C193.1,46.4,185.3,52,174.5,52z"/>
<path d="M10.8,78.7L1.7,65v13.7h-1.8V61.6h1.7l9.1,13.7V61.6h1.8v17.1H10.8z"/>
<path d="M23.9,78.7v-1.1c-1,1-1.8,1.3-3.4,1.3c-1.6,0-2.6-0.3-3.3-1.1c-0.6-0.6-0.9-1.5-0.9-2.4c0-2.1,1.4-3.4,4.1-3.4h3.6v-1.1
	c0-1.7-0.9-2.6-3-2.6c-1.5,0-2.3,0.4-3,1.3l-1.2-1.1c1.1-1.4,2.3-1.8,4.2-1.8c3.2,0,4.7,1.4,4.7,3.9v8H23.9z M23.9,73.3h-3.3
	c-1.8,0-2.6,0.7-2.6,2.1c0,1.4,0.8,2,2.7,2c1,0,1.9-0.1,2.6-0.8c0.4-0.4,0.6-1.1,0.6-2V73.3z"/>
<path d="M33.1,78.7c-2,0-3-1.4-3-3.2v-7.2h-1.5V67h1.5v-3.7h1.7V67h2.5v1.3h-2.5v7.2c0,1.1,0.5,1.7,1.6,1.7h0.9v1.5H33.1z"/>
<path d="M38.6,63.7c-0.6,0-1.2-0.5-1.2-1.2c0-0.6,0.5-1.2,1.2-1.2c0.6,0,1.2,0.5,1.2,1.2C39.8,63.1,39.3,63.7,38.6,63.7z M37.7,78.7
	V66.9h1.7v11.8H37.7z"/>
<path d="M51.4,77.5c-0.8,0.8-1.9,1.3-3.4,1.3c-1.4,0-2.6-0.5-3.4-1.3c-1.2-1.2-1.4-2.9-1.4-4.7c0-1.8,0.2-3.5,1.4-4.7
	c0.8-0.8,1.9-1.3,3.4-1.3c1.4,0,2.6,0.5,3.4,1.3c1.2,1.2,1.4,2.9,1.4,4.7C52.8,74.7,52.6,76.3,51.4,77.5z M50.2,69.2
	c-0.6-0.6-1.3-0.9-2.2-0.9c-0.8,0-1.6,0.3-2.1,0.9c-0.9,0.9-1,2.3-1,3.6c0,1.3,0.1,2.8,1,3.6c0.6,0.6,1.3,0.9,2.1,0.9
	c0.8,0,1.6-0.3,2.2-0.9c0.9-0.9,0.9-2.3,0.9-3.6C51.1,71.5,51,70,50.2,69.2z"/>
<path d="M64.1,78.7v-7.3c0-2.1-1.1-3.1-2.9-3.1c-1.8,0-2.9,1.1-2.9,3.1v7.3h-1.7V66.9h1.7v1.3c0.8-1,2-1.4,3.3-1.4
	c1.3,0,2.3,0.4,3,1.1c0.8,0.8,1.2,1.9,1.2,3.3v7.6H64.1z"/>
<path d="M76.7,78.7v-1.1c-1,1-1.8,1.3-3.4,1.3c-1.6,0-2.6-0.3-3.3-1.1c-0.6-0.6-0.9-1.5-0.9-2.4c0-2.1,1.4-3.4,4.1-3.4h3.6v-1.1
	c0-1.7-0.9-2.6-3-2.6c-1.5,0-2.3,0.4-3,1.3l-1.2-1.1c1.1-1.4,2.3-1.8,4.2-1.8c3.2,0,4.7,1.4,4.7,3.9v8H76.7z M76.7,73.3h-3.3
	c-1.8,0-2.6,0.7-2.6,2.1c0,1.4,0.8,2,2.7,2c1,0,1.9-0.1,2.6-0.8c0.4-0.4,0.6-1.1,0.6-2V73.3z"/>
<path d="M85.6,78.7c-2.1,0-3-1.3-3-3.1V61.6h1.7v13.9c0,1.2,0.4,1.7,1.6,1.7h0.9v1.5H85.6z"/>
<path d="M105.9,78.7l-3.9-7.6h-4.1v7.6h-1.8V61.6h6.6c3,0,5.1,1.8,5.1,4.8c0,2.5-1.5,4.1-3.7,4.6l4.1,7.8H105.9z M102.4,63.3h-4.6
	v6.3h4.6c2,0,3.4-1,3.4-3.1C105.9,64.3,104.4,63.3,102.4,63.3z"/>
<path d="M112.6,73.3c0,2.6,1.2,4.1,3.5,4.1c1.4,0,2.2-0.4,3.1-1.3l1.2,1c-1.2,1.2-2.3,1.8-4.3,1.8c-3.1,0-5.2-1.9-5.2-6
	c0-3.8,1.8-6,4.8-6c3,0,4.8,2.2,4.8,5.7v0.8H112.6z M118.5,70c-0.5-1.1-1.5-1.8-2.8-1.8c-1.2,0-2.3,0.7-2.8,1.8
	c-0.3,0.6-0.3,1-0.4,2h6.2C118.8,71,118.7,70.7,118.5,70z"/>
<path d="M127.9,78.9c-2,0-3.6-0.5-4.8-1.7l1.2-1.2c0.9,1,2.2,1.4,3.7,1.4c1.9,0,3.1-0.7,3.1-2.1c0-1-0.6-1.6-2-1.7l-1.9-0.2
	c-2.3-0.2-3.5-1.2-3.5-3.2c0-2.2,1.8-3.5,4.3-3.5c1.7,0,3.2,0.4,4.2,1.3l-1.1,1.1c-0.8-0.6-1.9-0.9-3.1-0.9c-1.7,0-2.6,0.7-2.6,1.9
	c0,1,0.6,1.6,2.1,1.7l1.9,0.2c2.1,0.2,3.5,1,3.5,3.2C132.7,77.6,130.8,78.9,127.9,78.9z"/>
<path d="M137.2,73.3c0,2.6,1.2,4.1,3.5,4.1c1.4,0,2.2-0.4,3.1-1.3l1.2,1c-1.2,1.2-2.3,1.8-4.3,1.8c-3.1,0-5.2-1.9-5.2-6
	c0-3.8,1.8-6,4.8-6c3,0,4.8,2.2,4.8,5.7v0.8H137.2z M143.1,70c-0.5-1.1-1.5-1.8-2.8-1.8c-1.2,0-2.3,0.7-2.8,1.8
	c-0.3,0.6-0.3,1-0.4,2h6.2C143.4,71,143.3,70.7,143.1,70z"/>
<path d="M155.5,78.7v-1.1c-1,1-1.8,1.3-3.4,1.3c-1.6,0-2.6-0.3-3.3-1.1c-0.6-0.6-0.9-1.5-0.9-2.4c0-2.1,1.4-3.4,4.1-3.4h3.6v-1.1
	c0-1.7-0.9-2.6-3-2.6c-1.5,0-2.3,0.4-3,1.3l-1.2-1.1c1.1-1.4,2.3-1.8,4.2-1.8c3.2,0,4.7,1.4,4.7,3.9v8H155.5z M155.5,73.3h-3.3
	c-1.8,0-2.6,0.7-2.6,2.1c0,1.4,0.8,2,2.7,2c1,0,1.9-0.1,2.6-0.8c0.4-0.4,0.6-1.1,0.6-2V73.3z"/>
<path d="M168.1,69.2c-0.6-0.6-1.1-0.9-2-0.9c-1.7,0-2.8,1.4-2.8,3.2v7.2h-1.7V66.9h1.7v1.4c0.6-1,1.9-1.6,3.3-1.6
	c1.1,0,2,0.3,2.8,1.1L168.1,69.2z"/>
<path d="M175.4,78.9c-3,0-5.2-2-5.2-6c0-4,2.3-6,5.2-6c1.6,0,2.7,0.4,3.9,1.8l-1.2,1.1c-0.9-1-1.6-1.3-2.7-1.3
	c-1.2,0-2.1,0.5-2.7,1.3c-0.6,0.8-0.8,1.7-0.8,3.2c0,1.5,0.2,2.4,0.8,3.2c0.6,0.9,1.6,1.3,2.7,1.3c1.1,0,1.8-0.4,2.7-1.3l1.2,1.1
	C178.1,78.4,177,78.9,175.4,78.9z"/>
<path d="M190.1,78.7v-7.3c0-2.1-1.1-3.1-2.9-3.1c-1.8,0-3,1.1-3,3.1v7.3h-1.7V61.6h1.7v6.6c0.9-1,2-1.4,3.3-1.4
	c2.7,0,4.2,1.7,4.2,4.4v7.6H190.1z"/>
<path d="M-0.1,102.7V85.6h1.8v17.1H-0.1z"/>
<path d="M13.9,102.7v-7.3c0-2.1-1.1-3.1-2.9-3.1c-1.8,0-2.9,1.1-2.9,3.1v7.3H6.4V90.9h1.7v1.3c0.8-1,2-1.4,3.3-1.4
	c1.3,0,2.3,0.4,3,1.1c0.8,0.8,1.2,1.9,1.2,3.3v7.6H13.9z"/>
<path d="M22,92.3v10.4h-1.7V92.3h-1.5V91h1.5v-2.2c0-1.8,1-3.2,3-3.2h1.2v1.5h-0.9c-1.1,0-1.6,0.6-1.6,1.7V91h2.5v1.3H22z"/>
<path d="M34,93.2c-0.6-0.6-1.1-0.9-2-0.9c-1.7,0-2.8,1.4-2.8,3.2v7.2h-1.7V90.9h1.7v1.4c0.6-1,1.9-1.6,3.3-1.6c1.1,0,2,0.3,2.8,1.1
	L34,93.2z"/>
<path d="M43.9,102.7v-1.1c-1,1-1.8,1.3-3.4,1.3c-1.6,0-2.6-0.3-3.3-1.1c-0.6-0.6-0.9-1.5-0.9-2.4c0-2.1,1.4-3.4,4.1-3.4h3.6v-1.1
	c0-1.7-0.9-2.6-3-2.6c-1.5,0-2.3,0.4-3,1.3l-1.2-1.1c1.1-1.4,2.3-1.8,4.2-1.8c3.2,0,4.7,1.4,4.7,3.9v8H43.9z M43.9,97.3h-3.3
	c-1.8,0-2.6,0.7-2.6,2.1c0,1.4,0.8,2,2.7,2c1,0,1.9-0.1,2.6-0.8c0.4-0.4,0.6-1.1,0.6-2V97.3z"/>
<path d="M53.6,102.9c-2,0-3.6-0.5-4.8-1.7l1.2-1.2c0.9,1,2.2,1.4,3.7,1.4c1.9,0,3.1-0.7,3.1-2.1c0-1-0.6-1.6-2-1.7l-1.9-0.2
	c-2.3-0.2-3.5-1.2-3.5-3.2c0-2.2,1.8-3.5,4.3-3.5c1.7,0,3.2,0.4,4.2,1.3l-1.1,1.1c-0.8-0.6-1.9-0.9-3.1-0.9c-1.7,0-2.6,0.7-2.6,1.9
	c0,1,0.6,1.6,2.1,1.7l1.9,0.2c2.1,0.2,3.5,1,3.5,3.2C58.4,101.6,56.4,102.9,53.6,102.9z"/>
<path d="M64.8,102.7c-2,0-3-1.4-3-3.2v-7.2h-1.5V91h1.5v-3.7h1.7V91h2.5v1.3h-2.5v7.2c0,1.1,0.5,1.7,1.6,1.7h0.9v1.5H64.8z"/>
<path d="M76.1,93.2c-0.6-0.6-1.1-0.9-2-0.9c-1.7,0-2.8,1.4-2.8,3.2v7.2h-1.7V90.9h1.7v1.4c0.6-1,1.9-1.6,3.3-1.6
	c1.1,0,2,0.3,2.8,1.1L76.1,93.2z"/>
<path d="M87.1,102.7v-1.3c-0.8,1-2,1.5-3.3,1.5c-1.3,0-2.3-0.4-3-1.1c-0.8-0.8-1.2-1.9-1.2-3.3v-7.5h1.7v7.3c0,2.1,1.1,3.1,2.9,3.1
	c1.8,0,3-1.1,3-3.1v-7.3h1.7v11.8H87.1z"/>
<path d="M97.7,102.9c-3,0-5.2-2-5.2-6c0-4,2.3-6,5.2-6c1.6,0,2.7,0.4,3.9,1.8l-1.2,1.1c-0.9-1-1.6-1.3-2.7-1.3
	c-1.2,0-2.1,0.5-2.7,1.3c-0.6,0.8-0.8,1.7-0.8,3.2c0,1.5,0.2,2.4,0.8,3.2c0.6,0.9,1.6,1.3,2.7,1.3c1.1,0,1.8-0.4,2.7-1.3l1.2,1.1
	C100.3,102.4,99.3,102.9,97.7,102.9z"/>
<path d="M108.2,102.7c-2,0-3-1.4-3-3.2v-7.2h-1.5V91h1.5v-3.7h1.7V91h2.5v1.3h-2.5v7.2c0,1.1,0.5,1.7,1.6,1.7h0.9v1.5H108.2z"/>
<path d="M120.3,102.7v-1.3c-0.8,1-2,1.5-3.3,1.5c-1.3,0-2.3-0.4-3-1.1c-0.8-0.8-1.2-1.9-1.2-3.3v-7.5h1.7v7.3c0,2.1,1.1,3.1,2.9,3.1
	c1.8,0,3-1.1,3-3.1v-7.3h1.7v11.8H120.3z"/>
<path d="M132.9,93.2c-0.6-0.6-1.1-0.9-2-0.9c-1.7,0-2.8,1.4-2.8,3.2v7.2h-1.7V90.9h1.7v1.4c0.6-1,1.9-1.6,3.3-1.6
	c1.1,0,2,0.3,2.8,1.1L132.9,93.2z"/>
<path d="M136.7,97.3c0,2.6,1.2,4.1,3.5,4.1c1.4,0,2.2-0.4,3.1-1.3l1.2,1c-1.2,1.2-2.3,1.8-4.3,1.8c-3.1,0-5.2-1.9-5.2-6
	c0-3.8,1.8-6,4.8-6c3,0,4.8,2.2,4.8,5.7v0.8H136.7z M142.6,94c-0.5-1.1-1.5-1.8-2.8-1.8c-1.2,0-2.3,0.7-2.8,1.8
	c-0.3,0.6-0.3,1-0.4,2h6.2C142.9,95,142.9,94.7,142.6,94z"/>
<path d="M156.5,92.3v10.4h-1.7V92.3h-1.5V91h1.5v-2.2c0-1.8,1-3.2,3-3.2h1.2v1.5h-0.9c-1.1,0-1.6,0.6-1.6,1.7V91h2.5v1.3H156.5z"/>
<path d="M169.1,101.5c-0.8,0.8-1.9,1.3-3.4,1.3c-1.4,0-2.6-0.5-3.4-1.3c-1.2-1.2-1.4-2.9-1.4-4.7c0-1.8,0.2-3.5,1.4-4.7
	c0.8-0.8,1.9-1.3,3.4-1.3c1.4,0,2.6,0.5,3.4,1.3c1.2,1.2,1.4,2.9,1.4,4.7C170.5,98.7,170.3,100.3,169.1,101.5z M167.9,93.2
	c-0.6-0.6-1.3-0.9-2.2-0.9c-0.8,0-1.6,0.3-2.1,0.9c-0.9,0.9-1,2.3-1,3.6c0,1.3,0.1,2.8,1,3.6c0.6,0.6,1.3,0.9,2.1,0.9
	c0.8,0,1.6-0.3,2.2-0.9c0.9-0.9,0.9-2.3,0.9-3.6C168.8,95.5,168.7,94,167.9,93.2z"/>
<path d="M180.8,93.2c-0.6-0.6-1.1-0.9-2-0.9c-1.7,0-2.8,1.4-2.8,3.2v7.2h-1.7V90.9h1.7v1.4c0.6-1,1.9-1.6,3.3-1.6
	c1.1,0,2,0.3,2.8,1.1L180.8,93.2z"/>
<path d="M200.6,102.7l-1.4-3.9h-7.5l-1.4,3.9h-1.9l6.3-17.1h1.5l6.3,17.1H200.6z M195.5,88.3l-3.2,9h6.4L195.5,88.3z"/>
<path d="M212.4,102.7v-1.3c-0.8,1-2,1.5-3.3,1.5c-1.3,0-2.3-0.4-3-1.1c-0.8-0.8-1.2-1.9-1.2-3.3v-7.5h1.7v7.3c0,2.1,1.1,3.1,2.9,3.1
	c1.8,0,3-1.1,3-3.1v-7.3h1.7v11.8H212.4z"/>
<path d="M222.2,102.9c-2,0-3.6-0.5-4.8-1.7l1.2-1.2c0.9,1,2.2,1.4,3.7,1.4c1.9,0,3.1-0.7,3.1-2.1c0-1-0.6-1.6-2-1.7l-1.9-0.2
	c-2.3-0.2-3.5-1.2-3.5-3.2c0-2.2,1.8-3.5,4.3-3.5c1.7,0,3.2,0.4,4.2,1.3l-1.1,1.1c-0.8-0.6-1.9-0.9-3.1-0.9c-1.7,0-2.6,0.7-2.6,1.9
	c0,1,0.6,1.6,2.1,1.7l1.9,0.2c2.1,0.2,3.5,1,3.5,3.2C227,101.6,225,102.9,222.2,102.9z"/>
<path d="M233.4,102.7c-2,0-3-1.4-3-3.2v-7.2h-1.5V91h1.5v-3.7h1.7V91h2.5v1.3h-2.5v7.2c0,1.1,0.5,1.7,1.6,1.7h0.9v1.5H233.4z"/>
<path d="M244.7,93.2c-0.6-0.6-1.1-0.9-2-0.9c-1.7,0-2.8,1.4-2.8,3.2v7.2h-1.7V90.9h1.7v1.4c0.6-1,1.9-1.6,3.3-1.6
	c1.1,0,2,0.3,2.8,1.1L244.7,93.2z"/>
<path d="M254.7,102.7v-1.1c-1,1-1.8,1.3-3.4,1.3c-1.6,0-2.6-0.3-3.3-1.1c-0.6-0.6-0.9-1.5-0.9-2.4c0-2.1,1.4-3.4,4.1-3.4h3.6v-1.1
	c0-1.7-0.9-2.6-3-2.6c-1.5,0-2.3,0.4-3,1.3l-1.2-1.1c1.1-1.4,2.3-1.8,4.2-1.8c3.2,0,4.7,1.4,4.7,3.9v8H254.7z M254.7,97.3h-3.3
	c-1.8,0-2.6,0.7-2.6,2.1c0,1.4,0.8,2,2.7,2c1,0,1.9-0.1,2.6-0.8c0.4-0.4,0.6-1.1,0.6-2V97.3z"/>
<path d="M263.5,102.7c-2.1,0-3-1.3-3-3.1V85.6h1.7v13.9c0,1.2,0.4,1.7,1.6,1.7h0.9v1.5H263.5z"/>
<path d="M268.6,87.7c-0.6,0-1.2-0.5-1.2-1.2c0-0.6,0.5-1.2,1.2-1.2c0.6,0,1.2,0.5,1.2,1.2C269.8,87.1,269.2,87.7,268.6,87.7z
	 M267.7,102.7V90.9h1.7v11.8H267.7z"/>
<path d="M280.5,102.7v-1.1c-1,1-1.8,1.3-3.4,1.3c-1.6,0-2.6-0.3-3.3-1.1c-0.6-0.6-0.9-1.5-0.9-2.4c0-2.1,1.4-3.4,4.1-3.4h3.6v-1.1
	c0-1.7-0.9-2.6-3-2.6c-1.5,0-2.3,0.4-3,1.3l-1.2-1.1c1.1-1.4,2.3-1.8,4.2-1.8c3.2,0,4.7,1.4,4.7,3.9v8H280.5z M280.5,97.3h-3.3
	c-1.8,0-2.6,0.7-2.6,2.1c0,1.4,0.8,2,2.7,2c1,0,1.9-0.1,2.6-0.8c0.4-0.4,0.6-1.1,0.6-2V97.3z"/>
</svg>
