<?xml version="1.0" encoding="utf-8"?>
<!-- Generator: Adobe Illustrator 18.1.1, SVG Export Plug-In . SVG Version: 6.00 Build 0)  -->
<svg version="1.1" id="Layer_1" xmlns="http://www.w3.org/2000/svg" xmlns:xlink="http://www.w3.org/1999/xlink" x="0px" y="0px"
	 viewBox="0 0 530.4 530.4" enable-background="new 0 0 530.4 530.4" xml:space="preserve">
<g>
	<circle fill="#00AFDB" cx="265.2" cy="265.2" r="265.2"/>
</g>
<g>
	<g>
		<path fill="#FFFFFF" d="M118.3,403.8c-24.1,0-42.1-18.6-42.1-42.2v-0.2c0-23.3,17.6-42.4,42.8-42.4c15.5,0,24.7,5.2,32.3,12.7
			l-11.5,13.2c-6.3-5.7-12.8-9.3-21-9.3c-13.8,0-23.8,11.5-23.8,25.6v0.2c0,14.1,9.7,25.8,23.8,25.8c9.4,0,15.1-3.8,21.6-9.6
			l11.5,11.6C143.5,398.2,134.1,403.8,118.3,403.8z"/>
		<path fill="#FFFFFF" d="M198.5,403.6c-12.4,0-25-4.3-34.8-13.1l10.6-12.8c7.4,6.1,15.1,10,24.5,10c7.4,0,11.8-2.9,11.8-7.7v-0.2
			c0-4.6-2.8-6.9-16.5-10.4c-16.5-4.2-27.2-8.8-27.2-25.1v-0.2c0-14.9,12-24.7,28.7-24.7c12,0,22.2,3.8,30.5,10.4l-9.4,13.6
			c-7.3-5-14.4-8.1-21.3-8.1c-6.9,0-10.5,3.2-10.5,7.2v0.3c0,5.4,3.5,7.1,17.7,10.8c16.6,4.3,26,10.3,26,24.6v0.2
			C228.7,394.5,216.2,403.6,198.5,403.6z"/>
		<path fill="#FFFFFF" d="M248.6,402.4v-42.2v-39.9h18v39.9v42.2H248.6z"/>
		<path fill="#FFFFFF" d="M339.6,402.4L322,376.2h-14.2v26.2h-18v-82h37.5c19.3,0,30.9,10.2,30.9,27.1v0.2
			c0,13.2-7.1,21.6-17.6,25.4l20,29.3H339.6z M339.9,348.4c0-7.7-5.4-11.7-14.2-11.7h-17.9v23.6h18.3c8.8,0,13.8-4.7,13.8-11.6
			V348.4z"/>
		<path fill="#FFFFFF" d="M414.4,403.8c-25.3,0-43.5-18.9-43.5-42.2v-0.2c0-23.3,18.4-42.4,43.7-42.4c25.3,0,43.5,18.9,43.5,42.2
			v0.2C458.1,384.7,439.7,403.8,414.4,403.8z M439.2,361.4c0-14.1-10.3-25.8-24.9-25.8c-14.5,0-24.6,11.5-24.6,25.6v0.2
			c0,14.1,10.3,25.8,24.8,25.8c14.5,0,24.6-11.5,24.6-25.6V361.4z"/>
	</g>
	<g>
		<path fill="#FFFFFF" d="M346.4,278.5c0,7.8-6.4,14.2-14.2,14.2c-7.8,0-14.2-6.4-14.2-14.2c0-7.8,6.4-14.2,14.2-14.2
			C340,264.3,346.4,270.6,346.4,278.5z"/>
		<path fill="#FFFFFF" d="M288.1,100.1c-7.3,0-13.2,5.9-13.2,13.2v112.6c0,7.3,5.9,13.2,13.2,13.2c7.2,0,13.1-5.9,13.1-13.2V113.2
			C301.3,106,295.4,100.1,288.1,100.1z"/>
		<path fill="#FFFFFF" d="M200,87.5c-7.3,0-13.2,5.9-13.2,13.2v100c0,7.3,5.9,13.2,13.2,13.2c7.3,0,13.2-5.9,13.2-13.2v-100
			C213.2,93.4,207.3,87.5,200,87.5z"/>
		<path fill="#FFFFFF" d="M376.3,125.3c-7.3,0-13.2,5.9-13.2,13.2v74.7c0,7.3,5.9,13.1,13.2,13.1c7.3,0,13.1-5.9,13.1-13.1v-74.7
			C389.4,131.2,383.5,125.3,376.3,125.3z"/>
		<path fill="#FFFFFF" d="M155.9,125.3c-7.3,0-13.2,5.9-13.2,13.2v74.7c0,7.3,5.9,13.1,13.2,13.1c7.3,0,13.1-5.9,13.1-13.1v-74.7
			C169.1,131.2,163.2,125.3,155.9,125.3z"/>
		<path fill="#FFFFFF" d="M332.2,62.2c-7.3,0-13.2,5.9-13.2,13.2v163.1c0,7.3,5.9,13.2,13.2,13.2c7.3,0,13.1-5.9,13.1-13.2V75.4
			C345.3,68.1,339.5,62.2,332.2,62.2z"/>
		<path fill="#FFFFFF" d="M244.1,62.2c-7.3,0-13.2,5.9-13.2,13.2V188c0,7.3,5.9,13.2,13.2,13.2c7.2,0,13.1-5.9,13.1-13.2V75.4
			C257.2,68.1,251.3,62.2,244.1,62.2z"/>
	</g>
</g>
</svg>
